<?xml version="1.0" encoding="UTF-8"?>
<svg width="127px" height="80px" viewBox="0 0 127 80" version="1.1" xmlns="http://www.w3.org/2000/svg" xmlns:xlink="http://www.w3.org/1999/xlink">
    <!-- Generator: Sketch 48.2 (47327) - http://www.bohemiancoding.com/sketch -->
    <title>Group 9</title>
    <desc>Created with Sketch.</desc>
    <defs></defs>
    <g id="Page-1" stroke="none" stroke-width="1" fill="none" fill-rule="evenodd">
        <g id="Group-9">
            <path d="M126.38,75.208 C126.38,77.518 124.51,79.39 122.2,79.39 L5.13,79.39 C2.82,79.39 0.95,77.518 0.95,75.208 L0.95,5.176 C0.95,2.866 2.82,0.996 5.13,0.996 L122.2,0.996 C124.51,0.996 126.38,2.866 126.38,5.176 L126.38,75.208" id="Fill-391" fill="#FF9900"></path>
            <path d="M72.71,48.148 C68.35,51.371 62.02,53.085 56.57,53.085 C48.93,53.085 42.05,50.262 36.84,45.559 C36.43,45.19 36.79,44.686 37.29,44.972 C42.9,48.24 49.85,50.21 57.02,50.21 C61.87,50.21 67.19,49.205 72.08,47.128 C72.82,46.815 73.44,47.615 72.71,48.148" id="Fill-392" fill="#231F20"></path>
            <path d="M74.53,46.074 C73.97,45.359 70.84,45.736 69.43,45.904 C69.01,45.954 68.94,45.583 69.33,45.312 C71.82,43.557 75.92,44.064 76.4,44.652 C76.88,45.244 76.27,49.351 73.93,51.311 C73.57,51.613 73.22,51.452 73.38,51.052 C73.91,49.737 75.09,46.79 74.53,46.074" id="Fill-393" fill="#231F20"></path>
            <path d="M69.53,32.909 L69.53,31.204 C69.53,30.945 69.73,30.772 69.96,30.772 L77.61,30.771 C77.86,30.771 78.05,30.949 78.05,31.202 L78.05,32.664 C78.05,32.91 77.84,33.232 77.47,33.738 L73.52,39.394 C74.98,39.36 76.54,39.58 77.88,40.331 C78.18,40.499 78.26,40.75 78.28,40.996 L78.28,42.817 C78.28,43.067 78.01,43.357 77.72,43.206 C75.37,41.974 72.24,41.839 69.64,43.221 C69.38,43.363 69.1,43.077 69.1,42.826 L69.1,41.094 C69.1,40.82 69.1,40.345 69.38,39.923 L73.97,33.34 L69.97,33.339 C69.73,33.339 69.53,33.165 69.53,32.909" id="Fill-394" fill="#231F20"></path>
            <path d="M41.64,43.565 L39.31,43.565 C39.1,43.551 38.92,43.384 38.9,43.172 L38.9,31.233 C38.9,30.993 39.1,30.803 39.35,30.803 L41.52,30.803 C41.74,30.815 41.93,30.987 41.94,31.204 L41.94,32.762 L41.98,32.762 C42.55,31.255 43.61,30.551 45.04,30.551 C46.5,30.551 47.41,31.255 48.06,32.762 C48.63,31.255 49.91,30.551 51.28,30.551 C52.25,30.551 53.32,30.954 53.97,31.857 C54.71,32.863 54.55,34.32 54.55,35.601 L54.55,43.135 C54.55,43.373 54.35,43.565 54.1,43.565 L51.78,43.565 C51.55,43.55 51.37,43.365 51.37,43.136 L51.36,36.807 C51.36,36.304 51.41,35.05 51.3,34.572 C51.12,33.767 50.6,33.541 49.93,33.541 C49.37,33.541 48.78,33.918 48.54,34.521 C48.3,35.124 48.32,36.128 48.32,36.807 L48.32,43.135 C48.32,43.373 48.12,43.565 47.88,43.565 L45.55,43.565 C45.32,43.55 45.13,43.365 45.13,43.136 L45.13,36.807 C45.13,35.476 45.35,33.517 43.7,33.517 C42.03,33.517 42.09,35.426 42.09,36.807 L42.09,43.135 C42.09,43.373 41.89,43.565 41.64,43.565" id="Fill-395" fill="#231F20"></path>
            <path d="M84.66,32.989 C82.94,32.989 82.83,35.325 82.83,36.783 C82.83,38.239 82.81,41.355 84.63,41.355 C86.44,41.355 86.52,38.842 86.52,37.31 C86.52,36.304 86.48,35.098 86.17,34.143 C85.91,33.315 85.39,32.989 84.66,32.989 Z M84.63,30.551 C88.09,30.551 89.95,33.517 89.95,37.285 C89.95,40.927 87.89,43.817 84.63,43.817 C81.25,43.817 79.4,40.851 79.4,37.159 C79.4,33.44 81.27,30.551 84.63,30.551 Z" id="Fill-396" fill="#231F20"></path>
            <path d="M94.43,43.565 L92.11,43.565 C91.88,43.55 91.7,43.365 91.7,43.136 L91.69,31.193 C91.71,30.974 91.91,30.803 92.14,30.803 L94.3,30.803 C94.5,30.814 94.67,30.952 94.71,31.137 L94.71,32.963 L94.75,32.963 C95.41,31.331 96.32,30.551 97.92,30.551 C98.96,30.551 99.99,30.928 100.64,31.959 C101.25,32.912 101.25,34.521 101.25,35.677 L101.25,43.189 C101.22,43.401 101.03,43.565 100.8,43.565 L98.47,43.565 C98.25,43.551 98.08,43.393 98.05,43.189 L98.05,36.708 C98.05,35.4 98.21,33.491 96.6,33.491 C96.04,33.491 95.51,33.867 95.25,34.446 C94.93,35.175 94.88,35.903 94.88,36.708 L94.88,43.135 C94.88,43.373 94.68,43.565 94.43,43.565" id="Fill-397" fill="#231F20"></path>
            <path d="M65.78,43.535 C65.63,43.673 65.41,43.682 65.23,43.589 C64.46,42.948 64.32,42.65 63.9,42.039 C62.62,43.341 61.72,43.729 60.06,43.729 C58.11,43.729 56.58,42.522 56.58,40.104 C56.58,38.217 57.61,36.932 59.06,36.301 C60.33,35.749 62.09,35.648 63.44,35.497 L63.44,35.195 C63.44,34.641 63.48,33.987 63.15,33.508 C62.87,33.08 62.33,32.904 61.85,32.904 C60.96,32.904 60.17,33.359 59.98,34.301 C59.94,34.509 59.79,34.717 59.57,34.728 L57.32,34.485 C57.13,34.441 56.92,34.289 56.97,33.997 C57.49,31.262 59.96,30.437 62.17,30.437 C63.31,30.437 64.79,30.739 65.68,31.595 C66.81,32.652 66.7,34.062 66.7,35.598 L66.7,39.221 C66.7,40.313 67.15,40.79 67.58,41.377 C67.73,41.589 67.76,41.842 67.57,41.995 C67.1,42.394 66.25,43.128 65.79,43.541 L65.78,43.535 Z M63.44,37.863 C63.44,38.771 63.46,39.526 63,40.332 C62.63,40.986 62.04,41.389 61.39,41.389 C60.5,41.389 59.98,40.709 59.98,39.703 C59.98,37.72 61.75,37.36 63.44,37.36 L63.44,37.863 Z" id="Fill-398" fill="#231F20"></path>
            <path d="M35.29,43.535 C35.13,43.673 34.91,43.682 34.74,43.589 C33.97,42.948 33.83,42.65 33.41,42.039 C32.13,43.341 31.22,43.729 29.57,43.729 C27.61,43.729 26.09,42.522 26.09,40.104 C26.09,38.217 27.11,36.932 28.57,36.301 C29.83,35.749 31.6,35.648 32.94,35.497 L32.94,35.195 C32.94,34.641 32.99,33.987 32.66,33.508 C32.38,33.08 31.83,32.904 31.36,32.904 C30.47,32.904 29.68,33.359 29.49,34.301 C29.45,34.509 29.29,34.717 29.08,34.728 L26.83,34.485 C26.64,34.441 26.42,34.289 26.48,33.997 C27,31.262 29.47,30.437 31.68,30.437 C32.81,30.437 34.29,30.739 35.19,31.595 C36.32,32.652 36.21,34.062 36.21,35.598 L36.21,39.221 C36.21,40.313 36.66,40.79 37.09,41.377 C37.23,41.589 37.27,41.842 37.08,41.995 C36.6,42.394 35.76,43.128 35.29,43.541 L35.29,43.535 Z M32.94,37.863 C32.94,38.771 32.96,39.526 32.51,40.332 C32.14,40.986 31.55,41.389 30.9,41.389 C30.01,41.389 29.48,40.709 29.48,39.703 C29.48,37.72 31.26,37.36 32.94,37.36 L32.94,37.863 Z" id="Fill-399" fill="#231F20"></path>
        </g>
    </g>
</svg>