<?xml version="1.0" encoding="UTF-8"?>
<svg width="126px" height="79px" viewBox="0 0 126 79" version="1.1" xmlns="http://www.w3.org/2000/svg" xmlns:xlink="http://www.w3.org/1999/xlink">
    <!-- Generator: Sketch 48.2 (47327) - http://www.bohemiancoding.com/sketch -->
    <title>Group 16</title>
    <desc>Created with Sketch.</desc>
    <defs></defs>
    <g id="Page-1" stroke="none" stroke-width="1" fill="none" fill-rule="evenodd">
        <g id="Group-16">
            <path d="M125.984,74.669 C125.984,76.977 124.111,78.848 121.803,78.848 L4.734,78.848 C2.426,78.848 0.555,76.977 0.555,74.669 L0.555,4.635 C0.555,2.327 2.426,0.456 4.734,0.456 L121.803,0.456 C124.111,0.456 125.984,2.327 125.984,4.635 L125.984,74.669" id="Fill-644" fill="#0078A9"></path>
            <path d="M39.471,37.827 L39.471,36.573 L38.871,37.827 L33.678,37.827 L33.025,36.481 L33.025,37.827 L23.318,37.827 L22.172,35.112 L20.227,35.112 L19.012,37.827 L13.979,37.827 L13.979,29.632 L17.668,21.284 L24.732,21.284 L25.725,23.649 L25.725,21.301 L34.363,21.301 L36.264,25.284 L38.123,21.284 L65.396,21.284 C65.396,21.284 66.826,21.264 67.768,21.926 L67.762,21.284 L74.633,21.284 L74.633,22.188 C74.633,22.188 75.869,21.284 77.695,21.284 C79.521,21.284 89.82,21.284 89.82,21.284 L90.885,23.684 L90.885,21.284 L98.654,21.284 L100.064,23.684 L100.064,21.284 L107.492,21.2839351 L107.492,37.842 L99.861,37.842 L98.068,34.956 L98.068,37.827 L88.584,37.827 L87.25,34.87 L85.391,34.87 L84.141,37.827 L78.4,37.827 C78.4,37.827 76.26,37.8 74.654,36.651 C74.654,37.253 74.654,37.827 74.654,37.827 L63.227,37.827 C63.227,37.827 63.227,34.526 63.227,33.964 C63.227,33.403 62.797,33.442 62.797,33.442 L62.379,33.442 L62.379,37.827 L39.471,37.827" id="Fill-645" fill="#FFFFFF"></path>
            <path d="M33.768,41.413 L48.783,41.413 L50.951,43.866 L53.168,41.413 L64.713,41.413 C64.713,41.413 65.797,41.44 66.826,41.989 L66.826,41.413 C66.826,41.413 75.805,41.413 77.107,41.413 C78.412,41.413 79.508,42.065 79.508,42.065 L79.508,41.413 L92.723,41.413 L92.723,42.014 C92.723,42.014 93.664,41.413 94.93,41.413 C96.193,41.413 103.539,41.413 103.539,41.413 L103.539,42.014 C103.539,42.014 104.623,41.413 105.77,41.413 C106.918,41.413 112.529,41.413 112.529,41.413 L112.529,57.016 C112.529,57.016 111.641,58.022 109.803,58.022 L100.891,58.022 L100.891,57.526 C100.891,57.526 100.043,58.022 98.75,58.022 C97.459,58.022 75.076,58.022 75.076,58.022 C75.076,58.022 75.076,54.389 75.076,53.989 C75.076,53.592 74.904,53.52 74.551,53.52 L74.225,53.52 L74.225,58.022 L66.826,58.022 L66.826,53.548 C66.826,53.548 66.006,53.989 64.635,53.989 C63.266,53.989 61.975,53.989 61.975,53.989 L61.975,58.022 L52.855,58.022 L50.781,55.491 L48.563,58.022 L33.768,58.022 L33.768,41.413" id="Fill-646" fill="#FFFFFF"></path>
            <polyline id="Fill-647" fill="#0078A9" points="81.094 43.903 90.518 43.903 90.518 46.43 83.979 46.43 83.979 48.634 90.334 48.634 90.334 50.86 83.979 50.86 83.979 53.178 90.518 53.178 90.518 55.643 81.094 55.643 81.094 43.903"></polyline>
            <path d="M108.723,48.477 C112.264,48.659 112.561,50.428 112.561,52.315 C112.561,54.514 110.752,55.696 108.865,55.696 L102.811,55.696 L102.811,53.178 L107.527,53.178 C108.328,53.178 109.52,53.178 109.52,52.051 C109.52,51.516 109.311,51.175 108.459,51.085 C108.08,51.03 106.68,50.952 106.467,50.948 C103.268,50.864 102.521,49.272 102.521,47.335 C102.521,45.134 104.068,43.93 105.957,43.93 L112.01,43.93 L112.01,46.446 L107.58,46.446 C106.572,46.456 105.484,46.327 105.484,47.466 C105.484,48.186 106.021,48.331 106.703,48.397 C106.939,48.397 108.512,48.479 108.723,48.477" id="Fill-648" fill="#0078A9"></path>
            <path d="M97.869,48.477 C101.412,48.659 101.709,50.428 101.709,52.315 C101.709,54.514 99.902,55.696 98.014,55.696 L91.961,55.696 L91.961,53.178 L96.678,53.178 C97.477,53.178 98.67,53.178 98.67,52.051 C98.67,51.516 98.459,51.175 97.607,51.085 C97.229,51.03 95.826,50.952 95.617,50.948 C92.414,50.864 91.674,49.272 91.674,47.335 C91.674,45.134 93.219,43.93 95.105,43.93 L101.158,43.93 L101.158,46.446 L96.73,46.446 C95.721,46.456 94.633,46.327 94.633,47.466 C94.633,48.186 95.172,48.331 95.854,48.397 C96.088,48.397 97.66,48.479 97.869,48.477" id="Fill-649" fill="#0078A9"></path>
            <path d="M62.723,49.266 L59.133,49.266 L59.133,46.448 L62.734,46.448 C63.941,46.448 64.322,47.221 64.322,47.798 C64.322,48.585 63.902,49.266 62.723,49.266 Z M56.225,54.542 L52.084,49.641 L56.225,45.055 L56.225,54.542 Z M45.207,53.178 L38.561,53.178 L38.561,50.86 L44.918,50.86 L44.918,48.634 L38.561,48.634 L38.561,46.43 L45.57,46.446 L48.377,49.641 L45.207,53.178 Z M63.693,43.928 L53.578,43.928 L50.275,47.571 L47.08,43.903 L35.719,43.903 L35.719,55.643 L46.711,55.643 L50.172,51.764 L53.551,55.671 L59.082,55.671 L59.082,51.684 L62.959,51.684 C64.453,51.684 67.18,51.634 67.18,47.518 C67.18,44.583 65.109,43.928 63.693,43.928 Z" id="Fill-650" fill="#0078A9"></path>
            <path d="M75.129,49.108 L71.539,49.108 L71.539,46.448 L75.141,46.448 C76.346,46.448 76.727,47.221 76.727,47.798 C76.727,48.583 76.309,49.108 75.129,49.108 Z M77.617,50.323 C79.191,49.538 79.609,48.489 79.609,47.073 C79.609,44.559 77.566,43.93 76.15,43.93 L68.656,43.93 L68.656,55.671 L71.539,55.671 L71.539,51.528 L75.313,51.528 C76.309,51.528 76.701,52.524 76.727,53.52 L76.803,55.671 L79.609,55.671 L79.504,53.259 C79.504,51.37 78.982,50.479 77.617,50.323 Z" id="Fill-651" fill="#0078A9"></path>
            <polygon id="Fill-652" fill="#0078A9" points="69.811 35.389 72.693 35.389 72.693 23.635 69.811 23.635"></polygon>
            <polyline id="Fill-653" fill="#0078A9" points="46.215 23.649 55.635 23.649 55.635 26.176 49.098 26.176 49.098 28.38 55.451 28.38 55.451 30.606 49.098 30.606 49.098 32.925 55.635 32.925 55.635 35.389 46.215 35.389 46.215 23.649"></polyline>
            <path d="M63.818,28.827 L60.229,28.827 L60.229,26.167 L63.832,26.167 C65.035,26.167 65.418,26.94 65.418,27.516 C65.418,28.303 64.998,28.827 63.818,28.827 Z M66.309,30.042 C67.883,29.259 68.301,28.208 68.301,26.792 C68.301,24.276 66.256,23.649 64.842,23.649 L57.346,23.649 L57.346,35.389 L60.229,35.389 L60.229,31.249 L64.002,31.249 C64.998,31.249 65.393,32.243 65.418,33.239 L65.496,35.389 L68.301,35.389 L68.197,32.977 C68.197,31.091 67.672,30.2 66.309,30.042 Z" id="Fill-654" fill="#0078A9"></path>
            <path d="M19.258,30.235 L20.977,26.132 L22.768,30.235 L19.258,30.235 Z M39.566,23.649 L36.029,31.524 L32.504,23.649 L27.984,23.649 L27.984,34.956 L22.953,23.649 L19.139,23.649 L14.002,35.389 L17.043,35.389 L18.168,32.768 L23.922,32.768 L25.063,35.389 L30.865,35.389 L30.865,26.675 L34.719,35.389 L37.34,35.389 L41.283,26.819 L41.283,35.389 L44.166,35.389 L44.166,23.649 L39.566,23.649 Z" id="Fill-655" fill="#0078A9"></path>
            <path d="M84.732,30.241 L86.449,26.137 L88.258,30.241 L84.732,30.241 Z M102.438,23.643 L102.438,31.772 L97.576,23.643 L93.316,23.643 L93.316,34.669 L88.406,23.649 L84.592,23.649 L80.621,32.743 C80.621,32.743 78.943,32.743 78.773,32.702 C78.08,32.559 76.994,32.069 76.98,29.999 L76.98,29.147 C76.98,26.395 78.475,26.194 80.391,26.194 L82.17,26.194 L82.17,23.643 L78.406,23.643 C77.096,23.643 74.244,24.643 74.148,29.466 C74.082,32.716 75.498,35.395 78.695,35.395 L82.496,35.395 L83.621,32.774 L89.373,32.774 L90.514,35.395 L96.201,35.395 L96.201,26.798 L101.389,35.395 L105.32,35.395 L105.32,23.643 L102.438,23.643 Z" id="Fill-656" fill="#0078A9"></path>
        </g>
    </g>
</svg>