<?xml version="1.0" encoding="UTF-8"?>
<svg width="127px" height="79px" viewBox="0 0 127 79" version="1.1" xmlns="http://www.w3.org/2000/svg" xmlns:xlink="http://www.w3.org/1999/xlink">
    <!-- Generator: Sketch 48.2 (47327) - http://www.bohemiancoding.com/sketch -->
    <title>Group 5</title>
    <desc>Created with Sketch.</desc>
    <defs></defs>
    <g id="Page-1" stroke="none" stroke-width="1" fill="none" fill-rule="evenodd">
        <g id="Group-5">
            <path d="M126.38,74.343 C126.38,76.652 124.51,78.523 122.2,78.523 L5.13,78.523 C2.82,78.523 0.95,76.652 0.95,74.343 L0.95,4.312 C0.95,2.002 2.82,0.13 5.13,0.13 L122.2,0.13 C124.51,0.13 126.38,2.002 126.38,4.312 L126.38,74.343" id="Fill-380" fill="#13457C"></path>
            <path d="M71.05,39.327 C71.05,51.737 60.99,61.796 48.58,61.796 C36.18,61.796 26.12,51.737 26.12,39.327 C26.12,26.919 36.18,16.858 48.58,16.858 C60.99,16.858 71.05,26.919 71.05,39.327" id="Fill-381" fill="#007CC3"></path>
            <path d="M78.75,16.858 C72.95,16.858 67.65,19.061 63.67,22.674 C62.86,23.41 62.1,24.206 61.4,25.051 L65.94,25.051 C66.56,25.806 67.13,26.6 67.65,27.431 L59.69,27.431 C59.21,28.196 58.77,28.989 58.39,29.811 L68.94,29.811 C69.3,30.582 69.62,31.375 69.9,32.19 L57.44,32.19 C57.18,32.966 56.96,33.759 56.79,34.569 L70.55,34.569 C70.88,36.102 71.05,37.695 71.05,39.327 C71.05,41.822 70.65,44.222 69.9,46.465 L57.44,46.465 C57.71,47.279 58.03,48.073 58.39,48.844 L68.94,48.844 C68.56,49.665 68.13,50.459 67.65,51.223 L59.69,51.223 C60.21,52.054 60.78,52.848 61.4,53.601 L65.94,53.601 C65.24,54.449 64.48,55.246 63.67,55.981 C67.65,59.594 72.95,61.796 78.75,61.796 C91.16,61.796 101.22,51.737 101.22,39.327 C101.22,26.919 91.16,16.858 78.75,16.858" id="Fill-382" fill="#009DDD"></path>
            <path d="M98.85,51.808 L98.93,51.808 C98.96,51.808 99,51.811 99.02,51.796 C99.05,51.781 99.06,51.751 99.06,51.722 C99.06,51.698 99.05,51.671 99.03,51.657 C99,51.642 98.96,51.645 98.93,51.645 L98.85,51.645 L98.85,51.808 Z M98.85,52.17 L98.7,52.17 L98.7,51.533 L98.97,51.533 C99.03,51.533 99.09,51.533 99.13,51.564 C99.19,51.6 99.21,51.66 99.21,51.723 C99.21,51.796 99.17,51.863 99.11,51.889 L99.22,52.17 L99.06,52.17 L98.96,51.917 L98.85,51.917 L98.85,52.17 Z M98.95,52.404 C99.25,52.404 99.5,52.156 99.5,51.852 C99.5,51.546 99.25,51.301 98.95,51.301 C98.64,51.301 98.4,51.546 98.4,51.852 C98.4,52.156 98.64,52.404 98.95,52.404 Z M98.22,51.852 C98.22,51.451 98.55,51.126 98.95,51.126 C99.35,51.126 99.68,51.451 99.68,51.852 C99.68,52.253 99.35,52.577 98.95,52.577 C98.55,52.577 98.22,52.253 98.22,51.852 Z" id="Fill-383" fill="#009DDD"></path>
            <path d="M91.31,44.301 L91.39,44.301 C91.43,44.301 91.46,44.304 91.48,44.289 C91.51,44.273 91.52,44.244 91.52,44.216 C91.52,44.192 91.51,44.163 91.49,44.15 C91.46,44.134 91.42,44.139 91.39,44.139 L91.31,44.139 L91.31,44.301 Z M91.31,44.662 L91.16,44.662 L91.16,44.024 L91.43,44.024 C91.49,44.024 91.55,44.025 91.6,44.057 C91.65,44.093 91.68,44.154 91.68,44.217 C91.68,44.289 91.63,44.356 91.57,44.383 L91.68,44.662 L91.52,44.662 L91.42,44.411 L91.31,44.411 L91.31,44.662 Z M91.41,44.897 C91.71,44.897 91.96,44.649 91.96,44.344 C91.96,44.04 91.71,43.793 91.41,43.793 C91.11,43.793 90.86,44.04 90.86,44.344 C90.86,44.649 91.11,44.897 91.41,44.897 Z M90.69,44.344 C90.69,43.944 91.01,43.618 91.41,43.618 C91.81,43.618 92.14,43.944 92.14,44.344 C92.14,44.745 91.81,45.07 91.41,45.07 C91.01,45.07 90.69,44.745 90.69,44.344 Z" id="Fill-384" fill="#FFFFFF"></path>
            <path d="M47.99,33.481 C47.79,34.363 47.69,34.862 47.41,35.933 C45.72,35.218 43.46,34.844 41.72,35.929 C40.08,36.974 39.53,38.602 39.64,40.406 C39.77,41.275 40.42,42.123 41.34,42.491 C42.93,43.077 44.44,42.863 46.13,41.999 C45.89,43.086 45.71,43.939 45.5,44.716 C43.47,45.28 41.55,45.467 39.53,44.794 C37.72,44.164 36.24,42.534 36.13,40.775 C35.71,37.951 37.07,35.062 39.81,33.735 C42.37,32.585 45.29,32.784 47.99,33.481" id="Fill-385" fill="#FFFFFF"></path>
            <path d="M76.62,43.52 C76.09,44.053 75.18,45.224 72.71,45.224 C70.47,45.224 69.04,43.569 69.84,39.847 L70.77,35.469 L74.2,35.469 C74.2,35.469 73.26,39.852 73.27,39.847 C72.95,41.337 73.03,42.472 74.54,42.472 C76.32,42.472 76.86,41.394 77.19,39.847 C77.19,39.851 78.12,35.469 78.12,35.469 L81.55,35.469 L80.01,42.509 C79.84,43.333 79.67,44.209 79.57,45.072 L76.35,45.072 C76.35,45.072 76.56,43.898 76.62,43.52" id="Fill-386" fill="#FFFFFF"></path>
            <path d="M82.69,38.507 C82.69,39.723 83.49,40.555 85.3,41.177 C86.71,41.668 86.93,41.811 86.93,42.238 C86.93,42.846 86.3,43.103 84.95,43.103 C83.92,43.103 82.96,43.001 81.86,42.733 C81.86,42.733 81.42,44.725 81.38,44.953 C82.34,45.125 84,45.224 84.97,45.224 C88.6,45.224 90.29,44.211 90.29,42.02 C90.29,40.71 89.58,39.94 87.86,39.348 C86.41,38.871 86.24,38.761 86.24,38.306 C86.24,37.797 86.82,37.526 87.94,37.526 C88.61,37.526 89.55,37.583 90.42,37.674 L90.9,35.446 C90.01,35.34 88.65,35.253 87.87,35.253 C84.02,35.253 82.68,36.738 82.69,38.507" id="Fill-387" fill="#FFFFFF"></path>
            <polyline id="Fill-388" fill="#FFFFFF" points="49.45 35.469 52.89 35.469 50.84 45.073 47.4 45.073 49.45 35.469"></polyline>
            <path d="M69.79,35.428 C67.26,35.094 66.54,36.337 65.86,36.954 C65.94,36.454 66.09,35.967 66.06,35.469 L62.91,35.469 C62.46,38.442 61.66,41.452 61.03,44.425 L60.86,45.071 L64.44,45.071 C64.87,43.12 65.37,40.177 65.94,39.286 C66.5,38.395 67.45,37.685 68.7,38.113 L69.79,35.428" id="Fill-389" fill="#FFFFFF"></path>
            <path d="M61.97,35.428 C59.44,35.094 58.72,36.337 58.04,36.954 C58.12,36.454 58.27,35.967 58.24,35.469 L55.09,35.469 C54.64,38.442 53.84,41.452 53.21,44.425 L53.04,45.071 L56.62,45.071 C57.05,43.12 57.54,40.177 58.11,39.286 C58.68,38.395 59.63,37.685 60.88,38.113 L61.97,35.428" id="Fill-390" fill="#FFFFFF"></path>
        </g>
    </g>
</svg>