<?xml version="1.0" encoding="UTF-8"?>
<svg width="126px" height="79px" viewBox="0 0 126 79" version="1.1" xmlns="http://www.w3.org/2000/svg" xmlns:xlink="http://www.w3.org/1999/xlink">
    <!-- Generator: Sketch 48.2 (47327) - http://www.bohemiancoding.com/sketch -->
    <title>Group 15</title>
    <desc>Created with Sketch.</desc>
    <defs></defs>
    <g id="Page-1" stroke="none" stroke-width="1" fill="none" fill-rule="evenodd">
        <g id="Group-15">
            <path d="M125.68,74.669 C125.68,76.977 123.807,78.848 121.498,78.848 L4.43,78.848 C2.121,78.848 0.25,76.977 0.25,74.669 L0.25,4.635 C0.25,2.327 2.121,0.456 4.43,0.456 L121.498,0.456 C123.807,0.456 125.68,2.327 125.68,4.635 L125.68,74.669" id="Fill-375" fill="#231F20"></path>
            <path d="M62.652,37.821 L63.898,37.821 C63.898,37.821 66.469,37.626 66.469,35.68 C66.469,33.653 63.744,33.497 63.744,33.497 L62.652,33.497 L62.652,37.821 Z M62.652,45.923 L63.898,45.923 C63.898,45.923 66.469,45.768 66.469,43.78 C66.469,41.794 63.744,41.598 63.744,41.598 L62.652,41.598 L62.652,45.923 Z M60.744,40.704 L64.641,40.704 C64.641,40.704 68.496,40.626 68.457,44.132 C68.418,46.741 64.717,47.13 64.717,47.13 L60.744,47.13 L60.744,40.704 Z M69.469,39.067 L71.338,39.067 L71.338,32.563 L69.469,32.563 L69.469,39.067 Z M90.27,47.171 L92.18,47.171 L92.18,42.223 L90.27,42.223 L90.27,47.171 Z M90.27,41.483 L92.18,41.483 L92.18,40.159 L90.27,40.159 L90.27,41.483 Z M82.674,36.497 L85.791,36.497 L85.791,35.29 L82.674,35.29 L82.674,33.807 L86.063,33.807 L86.063,32.563 L80.766,32.563 L80.766,39.067 L86.102,39.067 L86.102,37.899 L82.674,37.899 L82.674,36.497 Z M74.846,35.485 L75.857,35.485 C75.857,35.485 77.26,35.405 77.338,34.55 C77.375,33.731 75.975,33.614 75.975,33.614 L74.846,33.614 L74.846,35.485 Z M76.051,32.563 C76.051,32.563 79.248,32.407 79.248,34.276 C79.248,35.872 77.416,35.991 77.416,35.991 C77.416,35.991 77.922,36.069 78.154,36.419 C78.35,36.731 79.635,39.067 79.635,39.067 L77.688,39.067 C77.688,39.067 77.375,38.678 77.221,38.407 C77.104,38.134 76.752,37.55 76.752,37.55 C76.752,37.55 76.48,36.575 75.545,36.575 C75.521,36.575 75.141,36.561 74.846,36.55 L74.846,39.067 L72.975,39.067 L72.975,32.563 L76.051,32.563 Z M93.27,33.926 L93.502,32.796 C93.502,32.796 92.529,32.368 90.816,32.368 C89.141,32.368 86.451,33.303 86.451,35.835 C86.451,38.327 89.295,39.184 91.049,39.184 C92.801,39.184 93.387,38.913 93.387,38.913 L93.189,37.665 C93.189,37.665 92.412,37.899 91.088,37.899 C89.803,37.86 88.477,36.848 88.477,35.717 C88.518,34.706 89.686,33.575 91.205,33.575 C92.375,33.575 93.27,33.926 93.27,33.926 Z M94.049,33.653 L96.307,33.653 L96.307,39.067 L98.217,39.067 L98.217,33.653 L100.514,33.653 L100.514,32.524 L94.049,32.524 L94.049,33.653 Z M99.969,46.04 L100.008,47.13 C100.008,47.13 99.113,47.325 98.527,47.325 C97.945,47.325 96.424,46.975 96.424,45.495 C96.424,44.891 96.424,44.036 96.424,43.235 L94.828,43.235 L94.828,42.223 L96.424,42.223 C96.424,41.524 96.424,41.014 96.424,41.014 L98.371,41.014 L98.371,42.223 L99.969,42.223 L99.969,43.235 L98.371,43.235 L98.371,45.184 C98.371,45.184 98.371,46.159 99.152,46.159 C99.93,46.159 99.969,46.04 99.969,46.04 Z M83.492,46.235 C84.621,46.196 85.129,45.221 85.129,44.755 C85.129,44.286 84.855,43.315 83.414,43.315 C82.295,43.315 81.955,44.159 81.857,44.571 L81.857,45.081 C81.953,45.501 82.297,46.235 83.492,46.235 Z M81.857,42.989 C82.289,42.52 83.014,42.145 84.232,42.145 C86.646,42.145 87.037,44.171 86.998,44.716 C86.959,45.26 86.766,47.325 83.959,47.325 C82.9,47.325 82.252,46.966 81.857,46.514 L81.857,47.171 L79.947,47.171 L79.947,40.159 L81.857,40.159 L81.857,42.989 Z M72.402,44.21 L75.391,44.21 C75.391,44.21 75.391,43.081 73.949,43.081 C72.863,43.081 72.51,43.665 72.402,44.21 Z M72.396,45.184 C72.506,45.694 72.875,46.255 74.104,46.311 C75.74,46.352 76.676,45.729 76.676,45.729 L76.676,46.934 C76.676,46.934 74.885,47.364 74.027,47.364 C73.131,47.364 70.48,47.171 70.48,44.716 C70.48,42.729 72.662,42.106 73.91,42.106 C76.092,42.184 77.143,42.964 77.104,45.184 C77.104,45.216 73.516,45.192 72.396,45.184 Z M60.744,32.602 L64.641,32.602 C64.641,32.602 68.496,32.524 68.457,36.03 C68.418,38.639 64.717,39.028 64.717,39.028 L60.744,39.028 L60.744,32.602 Z" id="Fill-376" fill="#FFFFFF"></path>
            <path d="M43.256,36.231 C38.713,35.903 28.412,38.032 28.412,42.69 C28.412,45.729 33.867,50.169 42.748,50.286 C43.1,50.286 53.186,49.897 53.031,39.067 C52.9,29.973 46.094,28.38 43.916,28.102 L43.916,27.548 C52.594,28.098 59.42,33.319 59.42,39.651 C59.42,46.352 51.785,51.805 42.398,51.805 C33.01,51.805 25.416,46.352 25.416,39.651 C25.416,32.952 33.01,27.499 42.398,27.499 C42.686,27.499 42.971,27.505 43.256,27.514 L43.256,36.231 Z M43.256,36.475 L43.256,49.507 C43.256,49.507 35.697,48.143 35.697,42.964 C35.697,38.831 41.293,37.01 43.256,36.475 Z" id="Fill-377" fill="#FFFFFF"></path>
        </g>
    </g>
</svg>