<?xml version="1.0" encoding="UTF-8"?>
<svg width="126px" height="79px" viewBox="0 0 126 79" version="1.1" xmlns="http://www.w3.org/2000/svg" xmlns:xlink="http://www.w3.org/1999/xlink">
    <!-- Generator: Sketch 48.2 (47327) - http://www.bohemiancoding.com/sketch -->
    <title>Group 4</title>
    <desc>Created with Sketch.</desc>
    <defs></defs>
    <g id="Page-1" stroke="none" stroke-width="1" fill="none" fill-rule="evenodd">
        <g id="Group-4">
            <path d="M125.92,74.343 C125.92,76.652 124.05,78.523 121.74,78.523 L4.67,78.523 C2.36,78.523 0.49,76.652 0.49,74.343 L0.49,4.312 C0.49,2.002 2.36,0.13 4.67,0.13 L121.74,0.13 C124.05,0.13 125.92,2.002 125.92,4.312 L125.92,74.343" id="Fill-424" fill="#13457C"></path>
            <polyline id="Fill-425" fill="#EC1C2E" points="78.13 61.84 79.3 61.809 80.44 61.721 81.57 61.58 82.68 61.38 83.77 61.13 84.84 60.825 85.89 60.471 86.92 60.064 87.92 59.613 88.88 59.116 89.83 58.576 90.74 57.985 91.63 57.356 92.48 56.691 93.3 55.981 94.08 55.233 94.82 54.448 95.54 53.627 96.21 52.777 96.84 51.896 97.42 50.979 97.96 50.032 98.46 49.062 98.92 48.064 99.32 47.035 99.67 45.993 99.97 44.92 100.22 43.833 100.43 42.716 100.57 41.591 100.65 40.444 100.69 39.282 100.65 38.129 100.57 36.989 100.43 35.872 100.22 34.763 99.97 33.683 99.67 32.618 99.32 31.574 98.92 30.553 98.46 29.563 97.96 28.592 97.42 27.652 96.84 26.735 96.21 25.856 95.54 25.004 94.82 24.19 94.08 23.407 93.3 22.666 92.48 21.956 91.63 21.29 90.74 20.661 89.83 20.078 88.88 19.538 87.92 19.033 86.92 18.583 85.89 18.182 84.84 17.828 83.77 17.525 82.68 17.273 81.57 17.073 80.44 16.933 79.3 16.844 78.13 16.815 76.97 16.844 75.83 16.933 74.7 17.073 73.59 17.273 72.5 17.525 71.43 17.828 70.38 18.182 69.36 18.583 68.36 19.033 67.39 19.538 66.45 20.078 65.54 20.661 64.66 21.29 63.8 21.956 62.99 22.666 62.21 23.407 61.47 24.19 60.76 25.004 60.09 25.856 59.46 26.735 58.88 27.652 58.34 28.592 57.84 29.563 57.4 30.553 56.99 31.574 56.64 32.618 56.34 33.683 56.09 34.763 55.89 35.872 55.75 36.989 55.66 38.129 55.63 39.282 55.66 40.444 55.75 41.591 55.89 42.716 56.09 43.833 56.34 44.92 56.64 45.993 56.99 47.035 57.4 48.064 57.84 49.062 58.34 50.032 58.88 50.979 59.46 51.896 60.09 52.777 60.76 53.627 61.47 54.448 62.21 55.233 62.99 55.981 63.8 56.691 64.66 57.356 65.54 57.985 66.45 58.576 67.39 59.116 68.36 59.613 69.36 60.064 70.38 60.471 71.43 60.825 72.5 61.13 73.59 61.38 74.7 61.58 75.83 61.721 76.97 61.809 78.13 61.84"></polyline>
            <polyline id="Fill-426" fill="#0084C4" points="48.28 61.84 49.44 61.809 50.58 61.721 51.71 61.58 52.82 61.38 53.91 61.13 54.98 60.825 56.03 60.471 57.05 60.064 58.05 59.613 59.02 59.116 59.96 58.576 60.88 57.985 61.76 57.356 62.61 56.691 63.42 55.981 64.2 55.233 64.94 54.448 65.65 53.627 66.32 52.777 66.95 51.896 67.54 50.979 68.07 50.032 68.57 49.062 69.02 48.064 69.42 47.035 69.77 45.993 70.07 44.92 70.32 43.833 70.52 42.716 70.66 41.591 70.75 40.444 70.78 39.282 70.75 38.129 70.66 36.989 70.52 35.872 70.32 34.763 70.07 33.683 69.77 32.618 69.42 31.574 69.02 30.553 68.57 29.563 68.07 28.592 67.54 27.652 66.95 26.735 66.32 25.856 65.65 25.004 64.94 24.19 64.2 23.407 63.42 22.666 62.61 21.956 61.76 21.29 60.88 20.661 59.96 20.078 59.02 19.538 58.05 19.033 57.05 18.583 56.03 18.182 54.98 17.828 53.91 17.525 52.82 17.273 51.71 17.073 50.58 16.933 49.44 16.844 48.28 16.815 47.12 16.844 45.97 16.933 44.84 17.073 43.73 17.273 42.64 17.525 41.57 17.828 40.52 18.182 39.49 18.583 38.5 19.033 37.53 19.538 36.58 20.078 35.67 20.661 34.78 21.29 33.93 21.956 33.11 22.666 32.33 23.407 31.59 24.19 30.88 25.004 30.2 25.856 29.57 26.735 28.99 27.652 28.45 28.592 27.95 29.563 27.49 30.553 27.1 31.574 26.74 32.618 26.44 33.683 26.19 34.763 25.99 35.872 25.85 36.989 25.76 38.129 25.73 39.282 25.76 40.444 25.85 41.591 25.99 42.716 26.19 43.833 26.44 44.92 26.74 45.993 27.1 47.035 27.49 48.064 27.95 49.062 28.45 50.032 28.99 50.979 29.57 51.896 30.2 52.777 30.88 53.627 31.59 54.448 32.33 55.233 33.11 55.981 33.93 56.691 34.78 57.356 35.67 57.985 36.58 58.576 37.53 59.116 38.5 59.613 39.49 60.064 40.52 60.471 41.57 60.825 42.64 61.13 43.73 61.38 44.84 61.58 45.97 61.721 47.12 61.809 48.28 61.84"></polyline>
            <polyline id="Fill-427" fill="#EC1C2E" points="60.43 25.389 71.85 25.389 71.85 24.132 61.53 24.132 60.43 25.389"></polyline>
            <polyline id="Fill-428" fill="#EC1C2E" points="58.64 28.052 71.85 28.052 71.85 26.802 59.44 26.802 58.64 28.052"></polyline>
            <polyline id="Fill-429" fill="#EC1C2E" points="57.3 30.76 71.85 30.76 71.85 29.502 57.92 29.502 57.3 30.76"></polyline>
            <polyline id="Fill-430" fill="#EC1C2E" points="56.43 33.424 71.85 33.424 71.85 32.173 56.81 32.173 56.43 33.424"></polyline>
            <polyline id="Fill-431" fill="#EC1C2E" points="55.86 36.094 71.85 36.094 71.85 34.836 56.09 34.836 55.86 36.094"></polyline>
            <polyline id="Fill-432" fill="#EC1C2E" points="55.74 41.265 71.85 41.265 71.85 40.007 55.63 40.007 55.74 41.265"></polyline>
            <polyline id="Fill-433" fill="#EC1C2E" points="56.13 44.084 71.85 44.084 71.85 42.826 55.9 42.826 56.13 44.084"></polyline>
            <polyline id="Fill-434" fill="#EC1C2E" points="56.89 46.371 71.85 46.371 71.85 45.113 56.5 45.113 56.89 46.371"></polyline>
            <polyline id="Fill-435" fill="#EC1C2E" points="58.03 49.152 71.85 49.152 71.85 47.894 57.42 47.894 58.03 49.152"></polyline>
            <polyline id="Fill-436" fill="#EC1C2E" points="59.63 51.97 71.85 51.97 71.85 50.713 58.79 50.713 59.63 51.97"></polyline>
            <polyline id="Fill-437" fill="#EC1C2E" points="61.64 54.677 71.74 54.677 71.74 53.42 60.54 53.42 61.64 54.677"></polyline>
            <polyline id="Fill-438" fill="#EC1C2E" points="96.98 53.11 97.04 52.91 97.16 52.725 97.3 52.562 97.46 52.428 97.64 52.325 97.84 52.259 98.06 52.237 98.28 52.259 98.49 52.325 98.67 52.428 98.83 52.562 98.97 52.725 99.07 52.91 99.14 53.11 98.91 53.11 98.86 52.969 98.78 52.813 98.68 52.68 98.55 52.576 98.4 52.496 98.23 52.444 98.06 52.428 97.88 52.444 97.71 52.496 97.56 52.576 97.43 52.68 97.33 52.813 97.24 52.969 97.2 53.11 96.98 53.11"></polyline>
            <polyline id="Fill-439" fill="#EC1C2E" points="97.67 53.11 97.67 52.843 98.09 52.843 98.19 52.85 98.27 52.858 98.35 52.881 98.4 52.91 98.45 52.947 98.49 52.991 98.51 53.043 98.52 53.11 98.32 53.11 98.32 53.073 98.3 53.043 98.28 53.013 98.25 52.991 98.21 52.976 98.18 52.969 98.14 52.962 97.87 52.962 97.87 53.11 97.67 53.11"></polyline>
            <polyline id="Fill-440" fill="#EC1C2E" points="96.96 53.302 96.98 53.117 96.98 53.11 97.2 53.11 97.19 53.147 97.18 53.302 96.96 53.302"></polyline>
            <polyline id="Fill-441" fill="#EC1C2E" points="97.67 53.302 97.67 53.11 97.87 53.11 97.87 53.265 98.18 53.265 98.23 53.258 98.26 53.242 98.29 53.228 98.31 53.199 98.32 53.162 98.32 53.11 98.52 53.11 98.51 53.176 98.5 53.236 98.47 53.28 98.45 53.302 97.67 53.302"></polyline>
            <polyline id="Fill-442" fill="#EC1C2E" points="98.93 53.302 98.92 53.147 98.91 53.11 99.14 53.11 99.14 53.117 99.16 53.302 98.93 53.302"></polyline>
            <polyline id="Fill-443" fill="#EC1C2E" points="96.96 53.302 96.96 53.338 96.98 53.56 97.04 53.768 97.16 53.946 97.3 54.108 97.46 54.234 97.64 54.331 97.84 54.389 98.06 54.412 98.28 54.389 98.49 54.331 98.67 54.234 98.83 54.108 98.97 53.946 99.07 53.768 99.14 53.56 99.16 53.338 99.16 53.302 98.93 53.302 98.93 53.338 98.92 53.531 98.86 53.709 98.78 53.864 98.68 53.998 98.55 54.108 98.4 54.19 98.23 54.241 98.06 54.256 97.88 54.241 97.71 54.19 97.56 54.108 97.43 53.998 97.33 53.864 97.24 53.709 97.19 53.531 97.18 53.338 97.18 53.302 96.96 53.302"></polyline>
            <polyline id="Fill-444" fill="#EC1C2E" points="97.67 53.302 97.67 53.76 97.87 53.76 97.87 53.384 98.06 53.384 98.29 53.76 98.48 53.76 98.21 53.384 98.27 53.376 98.34 53.368 98.39 53.346 98.44 53.317 98.45 53.302 97.67 53.302"></polyline>
            <polyline id="Fill-445" fill="#FFFFFF" points="73.26 37.389 73.11 37.382 72.96 37.367 72.83 37.344 72.7 37.331 72.56 37.307 72.43 37.285 72.29 37.263 72.14 37.241 71.99 37.225 71.82 37.211 71.64 37.196 71.44 37.188 71.22 37.188 70.97 37.196 70.7 37.211 70.4 37.233 70.19 37.263 69.99 37.307 69.8 37.367 69.64 37.434 69.49 37.514 69.36 37.604 69.25 37.707 69.16 37.81 69.09 37.929 69.05 38.054 69.03 38.18 69.03 38.313 69.06 38.454 69.11 38.594 69.19 38.735 69.29 38.876 69.51 39.069 69.76 39.224 70.06 39.357 70.38 39.467 70.71 39.578 71.05 39.69 71.41 39.815 71.75 39.964 72.07 40.141 72.37 40.356 72.64 40.63 72.86 40.955 73.03 41.354 73.14 41.828 73.18 42.39 73.14 43.056 73.06 43.551 72.93 43.995 72.76 44.395 72.54 44.749 72.29 45.06 72.02 45.327 71.71 45.556 71.39 45.756 71.05 45.919 70.69 46.051 70.33 46.163 69.97 46.244 69.61 46.303 69.25 46.34 68.91 46.363 68.58 46.371 68.12 46.371 67.7 46.363 67.33 46.355 66.98 46.348 66.66 46.334 66.38 46.318 66.11 46.297 65.88 46.266 65.65 46.237 65.45 46.199 65.25 46.163 65.06 46.111 64.89 46.059 64.71 46.008 64.53 45.941 64.34 45.874 64.8 43.551 64.91 43.574 65.03 43.61 65.19 43.647 65.36 43.691 65.56 43.729 65.78 43.781 66.02 43.824 66.27 43.869 66.54 43.906 66.82 43.944 67.1 43.973 67.41 44.002 67.71 44.017 68.02 44.024 68.33 44.024 68.65 44.009 68.95 43.958 69.19 43.877 69.38 43.759 69.52 43.626 69.63 43.469 69.72 43.308 69.78 43.145 69.83 42.982 69.85 42.812 69.84 42.663 69.8 42.523 69.75 42.405 69.66 42.286 69.56 42.183 69.44 42.086 69.29 41.997 69.14 41.917 68.97 41.835 68.78 41.754 68.4 41.606 68.19 41.524 67.99 41.443 67.77 41.354 67.56 41.265 67.36 41.169 67.15 41.058 66.95 40.94 66.76 40.814 66.58 40.673 66.41 40.51 66.25 40.341 66.11 40.148 65.99 39.941 65.88 39.711 65.79 39.467 65.73 39.194 65.7 38.898 65.69 38.572 65.71 38.224 65.73 38.01 65.77 37.802 65.79 37.604 65.84 37.411 65.88 37.225 65.94 37.041 66 36.871 66.07 36.701 66.15 36.545 66.23 36.39 66.33 36.249 66.43 36.109 66.54 35.976 66.66 35.849 66.79 35.731 66.93 35.62 67.07 35.517 67.23 35.421 67.4 35.332 67.58 35.243 67.76 35.169 67.96 35.095 68.17 35.036 68.39 34.976 68.63 34.925 68.87 34.881 69.13 34.844 69.39 34.814 69.67 34.792 69.97 34.778 70.27 34.763 70.98 34.763 71.34 34.769 71.65 34.778 71.95 34.792 72.21 34.807 72.45 34.822 72.66 34.844 72.85 34.859 73.02 34.881 73.16 34.903 73.3 34.917 73.42 34.94 73.53 34.955 73.62 34.969 73.71 34.984 73.79 34.992 73.26 37.389"></polyline>
            <polyline id="Stroke-446" stroke="#FFFFFF" stroke-width="0.215" points="73.26 37.389 73.26 37.389 73.11 37.382 72.96 37.367 72.83 37.344 72.7 37.331 72.56 37.307 72.43 37.285 72.29 37.263 72.14 37.241 71.99 37.225 71.82 37.211 71.64 37.196 71.44 37.188 71.22 37.188 70.97 37.196 70.7 37.211 70.4 37.233 70.19 37.263 69.99 37.307 69.8 37.367 69.64 37.434 69.49 37.514 69.36 37.604 69.25 37.707 69.16 37.81 69.09 37.929 69.05 38.054 69.03 38.18 69.03 38.313 69.06 38.454 69.11 38.594 69.19 38.735 69.29 38.876 69.51 39.069 69.76 39.224 70.06 39.357 70.38 39.467 70.71 39.578 71.05 39.69 71.41 39.815 71.75 39.964 72.07 40.141 72.37 40.356 72.64 40.63 72.86 40.955 73.03 41.354 73.14 41.828 73.18 42.39 73.14 43.056 73.06 43.551 72.93 43.995 72.76 44.395 72.54 44.749 72.29 45.06 72.02 45.327 71.71 45.556 71.39 45.756 71.05 45.919 70.69 46.051 70.33 46.163 69.97 46.244 69.61 46.303 69.25 46.34 68.91 46.363 68.58 46.371 68.12 46.371 67.7 46.363 67.33 46.355 66.98 46.348 66.66 46.334 66.38 46.318 66.11 46.297 65.88 46.266 65.65 46.237 65.45 46.199 65.25 46.163 65.06 46.111 64.89 46.059 64.71 46.008 64.53 45.941 64.34 45.874 64.8 43.551 64.91 43.574 65.03 43.61 65.19 43.647 65.36 43.691 65.56 43.729 65.78 43.781 66.02 43.824 66.27 43.869 66.54 43.906 66.82 43.944 67.1 43.973 67.41 44.002 67.71 44.017 68.02 44.024 68.33 44.024 68.65 44.009 68.95 43.958 69.19 43.877 69.38 43.759 69.52 43.626 69.63 43.469 69.72 43.308 69.78 43.145 69.83 42.982 69.85 42.812 69.84 42.663 69.8 42.523 69.75 42.405 69.66 42.286 69.56 42.183 69.44 42.086 69.29 41.997 69.14 41.917 68.97 41.835 68.78 41.754 68.4 41.606 68.19 41.524 67.99 41.443 67.77 41.354 67.56 41.265 67.36 41.169 67.15 41.058 66.95 40.94 66.76 40.814 66.58 40.673 66.41 40.51 66.25 40.341 66.11 40.148 65.99 39.941 65.88 39.711 65.79 39.467 65.73 39.194 65.7 38.898 65.69 38.572 65.71 38.224 65.73 38.01 65.77 37.802 65.79 37.604 65.84 37.411 65.88 37.225 65.94 37.041 66 36.871 66.07 36.701 66.15 36.545 66.23 36.39 66.33 36.249 66.43 36.109 66.54 35.976 66.66 35.849 66.79 35.731 66.93 35.62 67.07 35.517 67.23 35.421 67.4 35.332 67.58 35.243 67.76 35.169 67.96 35.095 68.17 35.036 68.39 34.976 68.63 34.925 68.87 34.881 69.13 34.844 69.39 34.814 69.67 34.792 69.97 34.778 70.27 34.763 70.98 34.763 71.34 34.769 71.65 34.778 71.95 34.792 72.21 34.807 72.45 34.822 72.66 34.844 72.85 34.859 73.02 34.881 73.16 34.903 73.3 34.917 73.42 34.94 73.53 34.955 73.62 34.969 73.71 34.984 73.79 34.992 73.26 37.389"></polyline>
            <polyline id="Fill-447" fill="#FFFFFF" points="75.69 32.439 78.67 32.439 78.21 35.03 80.04 35.03 79.62 37.389 77.75 37.351 76.77 43.248 76.75 43.373 76.75 43.484 76.77 43.581 76.8 43.67 76.84 43.744 76.89 43.818 76.96 43.877 77.03 43.92 77.12 43.966 77.21 44.002 77.31 44.032 77.42 44.048 77.54 44.07 77.65 44.076 77.78 44.084 78.14 44.084 78.35 44.07 78.54 44.04 78.71 44.002 78.83 43.966 78.93 43.928 78.99 43.898 79.01 43.892 78.71 45.911 78.63 45.956 78.55 45.993 78.47 46.03 78.39 46.067 78.31 46.096 78.21 46.126 78.13 46.155 78.02 46.185 77.92 46.214 77.81 46.237 77.68 46.259 77.55 46.28 77.41 46.303 77.26 46.325 77.09 46.348 76.91 46.371 76.12 46.371 75.69 46.34 75.32 46.297 74.98 46.237 74.7 46.155 74.45 46.067 74.24 45.956 74.07 45.831 73.93 45.689 73.82 45.533 73.74 45.363 73.69 45.178 73.66 44.972 73.65 44.758 73.66 44.521 73.68 44.276 73.72 44.009 75.69 32.439"></polyline>
            <polyline id="Stroke-448" stroke="#FFFFFF" stroke-width="0.215" points="75.69 32.439 78.67 32.439 78.21 35.03 80.04 35.03 79.62 37.389 77.75 37.351 76.77 43.248 76.75 43.373 76.75 43.484 76.77 43.581 76.8 43.67 76.84 43.744 76.89 43.818 76.96 43.877 77.03 43.92 77.12 43.966 77.21 44.002 77.31 44.032 77.42 44.048 77.54 44.07 77.65 44.076 77.78 44.084 78.14 44.084 78.35 44.07 78.54 44.04 78.71 44.002 78.83 43.966 78.93 43.928 78.99 43.898 79.01 43.892 78.71 45.911 78.63 45.956 78.55 45.993 78.47 46.03 78.39 46.067 78.31 46.096 78.21 46.126 78.13 46.155 78.02 46.185 77.92 46.214 77.81 46.237 77.68 46.259 77.55 46.28 77.41 46.303 77.26 46.325 77.09 46.348 76.91 46.371 76.12 46.371 75.69 46.34 75.32 46.297 74.98 46.237 74.7 46.155 74.45 46.067 74.24 45.956 74.07 45.831 73.93 45.689 73.82 45.533 73.74 45.363 73.69 45.178 73.66 44.972 73.65 44.758 73.66 44.521 73.68 44.276 73.72 44.009 75.69 32.439"></polyline>
            <polyline id="Fill-449" fill="#FFFFFF" points="57.61 41.42 57.58 41.606 57.57 41.791 57.58 41.99 57.63 42.183 57.69 42.383 57.78 42.582 57.88 42.774 58.01 42.959 58.14 43.137 58.31 43.308 58.48 43.456 58.66 43.596 58.86 43.714 59.07 43.811 59.29 43.884 59.51 43.936 59.78 43.973 60.05 44.009 60.32 44.04 60.59 44.054 60.88 44.061 61.15 44.061 61.44 44.048 61.72 44.024 62.01 43.981 62.3 43.928 62.6 43.854 62.89 43.759 63.19 43.647 63.5 43.515 63.8 43.352 64.12 43.174 63.66 45.801 63.49 45.889 63.32 45.97 63.16 46.038 63 46.096 62.83 46.155 62.67 46.199 62.5 46.237 62.32 46.274 62.13 46.297 61.92 46.318 61.69 46.34 61.45 46.348 61.18 46.363 60.88 46.363 60.56 46.371 59.94 46.371 59.68 46.355 59.42 46.34 59.15 46.311 58.88 46.274 58.61 46.229 58.35 46.171 58.08 46.111 57.82 46.03 57.56 45.948 57.31 45.852 57.06 45.742 56.81 45.615 56.58 45.482 56.35 45.334 56.13 45.172 55.93 44.994 55.73 44.802 55.53 44.594 55.36 44.372 55.2 44.128 55.05 43.877 54.92 43.604 54.8 43.314 54.7 43.005 54.62 42.678 54.55 42.338 54.51 41.968 54.48 41.583 54.48 41.184 54.49 40.756 54.53 40.31 54.55 40.156 54.57 39.978 54.6 39.8 54.64 39.609 54.68 39.408 54.73 39.201 54.79 38.987 54.85 38.765 54.92 38.535 55 38.313 55.2 37.855 55.32 37.625 55.45 37.396 55.59 37.168 55.73 36.945 55.9 36.731 56.08 36.516 56.27 36.308 56.71 35.924 56.96 35.747 57.21 35.583 57.49 35.428 57.79 35.295 58.11 35.169 58.44 35.058 58.8 34.969 59.17 34.896 59.57 34.844 59.99 34.814 60.43 34.799 60.64 34.799 60.85 34.814 61.06 34.829 61.28 34.851 61.49 34.881 61.71 34.925 61.93 34.976 62.14 35.036 62.36 35.102 62.57 35.184 62.78 35.272 62.98 35.377 63.17 35.495 63.36 35.62 63.54 35.769 63.72 35.924 63.88 36.094 64.03 36.28 64.17 36.486 64.3 36.701 64.42 36.937 64.52 37.188 64.61 37.463 64.68 37.752 64.74 38.063 64.77 38.386 64.79 38.735 64.79 39.105 64.77 39.497 64.73 39.911 64.66 40.348 64.57 40.807 64.46 41.458 56.77 41.458 57.23 39.401 61.84 39.401 61.86 39.12 61.86 38.861 61.84 38.617 61.8 38.394 61.74 38.196 61.67 38.01 61.57 37.847 61.46 37.699 61.33 37.566 61.19 37.456 61.04 37.367 60.89 37.292 60.72 37.233 60.54 37.188 60.36 37.168 60.17 37.159 59.96 37.159 59.77 37.188 59.57 37.225 59.39 37.285 59.22 37.367 59.06 37.463 58.91 37.573 58.77 37.699 58.63 37.847 58.4 38.173 58.3 38.358 58.21 38.55 58.14 38.757 58.08 38.98 58.03 39.209 57.61 41.42"></polyline>
            <polyline id="Stroke-450" stroke="#FFFFFF" stroke-width="0.215" points="57.61 41.42 57.61 41.42 57.58 41.606 57.57 41.791 57.58 41.99 57.63 42.183 57.69 42.383 57.78 42.582 57.88 42.774 58.01 42.959 58.14 43.137 58.31 43.308 58.48 43.456 58.66 43.596 58.86 43.714 59.07 43.811 59.29 43.884 59.51 43.936 59.78 43.973 60.05 44.009 60.32 44.04 60.59 44.054 60.88 44.061 61.15 44.061 61.44 44.048 61.72 44.024 62.01 43.981 62.3 43.928 62.6 43.854 62.89 43.759 63.19 43.647 63.5 43.515 63.8 43.352 64.12 43.174 63.66 45.801 63.49 45.889 63.32 45.97 63.16 46.038 63 46.096 62.83 46.155 62.67 46.199 62.5 46.237 62.32 46.274 62.13 46.297 61.92 46.318 61.69 46.34 61.45 46.348 61.18 46.363 60.88 46.363 60.56 46.371 59.94 46.371 59.68 46.355 59.42 46.34 59.15 46.311 58.88 46.274 58.61 46.229 58.35 46.171 58.08 46.111 57.82 46.03 57.56 45.948 57.31 45.852 57.06 45.742 56.81 45.615 56.58 45.482 56.35 45.334 56.13 45.172 55.93 44.994 55.73 44.802 55.53 44.594 55.36 44.372 55.2 44.128 55.05 43.877 54.92 43.604 54.8 43.314 54.7 43.005 54.62 42.678 54.55 42.338 54.51 41.968 54.48 41.583 54.48 41.184 54.49 40.756 54.53 40.31 54.55 40.156 54.57 39.978 54.6 39.8 54.64 39.609 54.68 39.408 54.73 39.201 54.79 38.987 54.85 38.765 54.92 38.535 55 38.313 55.2 37.855 55.32 37.625 55.45 37.396 55.59 37.168 55.73 36.945 55.9 36.731 56.08 36.516 56.27 36.308 56.71 35.924 56.96 35.747 57.21 35.583 57.49 35.428 57.79 35.295 58.11 35.169 58.44 35.058 58.8 34.969 59.17 34.896 59.57 34.844 59.99 34.814 60.43 34.799 60.64 34.799 60.85 34.814 61.06 34.829 61.28 34.851 61.49 34.881 61.71 34.925 61.93 34.976 62.14 35.036 62.36 35.102 62.57 35.184 62.78 35.272 62.98 35.377 63.17 35.495 63.36 35.62 63.54 35.769 63.72 35.924 63.88 36.094 64.03 36.28 64.17 36.486 64.3 36.701 64.42 36.937 64.52 37.188 64.61 37.463 64.68 37.752 64.74 38.063 64.77 38.386 64.79 38.735 64.79 39.105 64.77 39.497 64.73 39.911 64.66 40.348 64.57 40.807 64.46 41.458 56.77 41.458 57.23 39.401 61.84 39.401 61.86 39.12 61.86 38.861 61.84 38.617 61.8 38.394 61.74 38.196 61.67 38.01 61.57 37.847 61.46 37.699 61.33 37.566 61.19 37.456 61.04 37.367 60.89 37.292 60.72 37.233 60.54 37.188 60.36 37.168 60.17 37.159 59.96 37.159 59.77 37.188 59.57 37.225 59.39 37.285 59.22 37.367 59.06 37.463 58.91 37.573 58.77 37.699 58.63 37.847 58.4 38.173 58.3 38.358 58.21 38.55 58.14 38.757 58.08 38.98 58.03 39.209 57.61 41.42"></polyline>
            <polyline id="Fill-451" fill="#FFFFFF" points="53.5 44.009 53.08 46.371 50.41 46.371 50.44 46.148 50.46 45.926 50.5 45.727 50.53 45.541 50.55 45.385 50.58 45.253 50.61 45.164 50.64 45.113 50.5 45.275 50.32 45.437 50.12 45.594 49.89 45.742 49.65 45.882 49.38 46.015 49.1 46.134 48.81 46.244 48.51 46.34 48.2 46.423 47.88 46.48 47.57 46.525 47.26 46.548 46.96 46.555 46.66 46.534 46.37 46.488 46 46.4 45.67 46.28 45.36 46.14 45.1 45.985 44.86 45.815 44.66 45.623 44.48 45.423 44.33 45.202 44.21 44.98 44.1 44.749 44.02 44.512 43.96 44.269 43.91 44.032 43.88 43.788 43.87 43.551 43.86 43.322 43.89 42.908 43.96 42.516 44.05 42.137 44.19 41.783 44.36 41.451 44.55 41.14 44.79 40.851 45.03 40.577 45.3 40.333 45.59 40.119 45.9 39.92 46.23 39.748 46.57 39.601 46.92 39.482 47.27 39.394 47.63 39.327 47.65 39.327 47.7 39.32 47.78 39.311 47.89 39.297 48.02 39.282 48.16 39.268 48.33 39.245 48.51 39.232 48.68 39.216 48.86 39.194 49.04 39.178 49.22 39.164 49.38 39.149 49.54 39.142 49.68 39.135 50.18 39.135 50.31 39.142 50.44 39.142 50.55 39.149 50.79 39.149 50.89 39.157 50.99 39.157 51.07 39.164 51.15 39.164 51.21 39.172 51.29 39.172 51.31 39.098 51.36 38.921 51.4 38.712 51.4 38.529 51.38 38.394 51.36 38.269 51.32 38.15 51.27 38.04 51.21 37.936 51.14 37.841 51.06 37.752 50.98 37.662 50.88 37.589 50.78 37.529 50.67 37.47 50.56 37.418 50.45 37.382 50.32 37.351 50.19 37.331 50.07 37.315 49.76 37.307 49.45 37.315 49.11 37.322 48.77 37.344 48.43 37.367 48.09 37.396 47.75 37.434 47.42 37.47 47.1 37.521 46.8 37.566 46.52 37.618 46.26 37.677 46.04 37.736 45.84 37.795 45.69 37.855 45.58 37.921 46.34 35.406 46.56 35.303 46.8 35.207 47.03 35.125 47.29 35.058 47.54 35.006 47.81 34.962 48.09 34.925 48.38 34.896 48.68 34.881 48.98 34.866 49.29 34.859 50.3 34.859 50.65 34.866 51.02 34.874 51.32 34.903 51.64 34.947 51.97 35.03 52.31 35.125 52.64 35.25 52.97 35.406 53.29 35.583 53.58 35.791 53.86 36.027 54.1 36.286 54.31 36.575 54.47 36.892 54.59 37.241 54.65 37.618 54.66 38.017 54.6 38.454 53.5 44.009"></polyline>
            <polyline id="Stroke-452" stroke="#FFFFFF" stroke-width="0.215" points="53.5 44.009 53.08 46.371 50.41 46.371 50.44 46.148 50.46 45.926 50.5 45.727 50.53 45.541 50.55 45.385 50.58 45.253 50.61 45.164 50.64 45.113 50.5 45.275 50.32 45.437 50.12 45.594 49.89 45.742 49.65 45.882 49.38 46.015 49.1 46.134 48.81 46.244 48.51 46.34 48.2 46.423 47.88 46.48 47.57 46.525 47.26 46.548 46.96 46.555 46.66 46.534 46.37 46.488 46 46.4 45.67 46.28 45.36 46.14 45.1 45.985 44.86 45.815 44.66 45.623 44.48 45.423 44.33 45.202 44.21 44.98 44.1 44.749 44.02 44.512 43.96 44.269 43.91 44.032 43.88 43.788 43.87 43.551 43.86 43.322 43.89 42.908 43.96 42.516 44.05 42.137 44.19 41.783 44.36 41.451 44.55 41.14 44.79 40.851 45.03 40.577 45.3 40.333 45.59 40.119 45.9 39.92 46.23 39.748 46.57 39.601 46.92 39.482 47.27 39.394 47.63 39.327 47.65 39.327 47.7 39.32 47.78 39.311 47.89 39.297 48.02 39.282 48.16 39.268 48.33 39.245 48.51 39.232 48.68 39.216 48.86 39.194 49.04 39.178 49.22 39.164 49.38 39.149 49.54 39.142 49.68 39.135 50.18 39.135 50.31 39.142 50.44 39.142 50.55 39.149 50.79 39.149 50.89 39.157 50.99 39.157 51.07 39.164 51.15 39.164 51.21 39.172 51.29 39.172 51.31 39.098 51.36 38.921 51.4 38.712 51.4 38.529 51.38 38.394 51.36 38.269 51.32 38.15 51.27 38.04 51.21 37.936 51.14 37.841 51.06 37.752 50.98 37.662 50.88 37.589 50.78 37.529 50.67 37.47 50.56 37.418 50.45 37.382 50.32 37.351 50.19 37.331 50.07 37.315 49.76 37.307 49.45 37.315 49.11 37.322 48.77 37.344 48.43 37.367 48.09 37.396 47.75 37.434 47.42 37.47 47.1 37.521 46.8 37.566 46.52 37.618 46.26 37.677 46.04 37.736 45.84 37.795 45.69 37.855 45.58 37.921 46.34 35.406 46.56 35.303 46.8 35.207 47.03 35.125 47.29 35.058 47.54 35.006 47.81 34.962 48.09 34.925 48.38 34.896 48.68 34.881 48.98 34.866 49.29 34.859 50.3 34.859 50.65 34.866 51.02 34.874 51.32 34.903 51.64 34.947 51.97 35.03 52.31 35.125 52.64 35.25 52.97 35.406 53.29 35.583 53.58 35.791 53.86 36.027 54.1 36.286 54.31 36.575 54.47 36.892 54.59 37.241 54.65 37.618 54.66 38.017 54.6 38.454 53.5 44.009"></polyline>
            <polyline id="Fill-453" fill="#0084C4" points="50.95 41.228 50.94 41.169 50.89 41.124 50.82 41.088 50.73 41.066 50.6 41.051 50.46 41.043 50.15 41.043 49.98 41.058 49.8 41.08 49.63 41.102 49.46 41.133 49.3 41.161 49.14 41.191 49.01 41.228 48.89 41.265 48.82 41.28 48.73 41.309 48.63 41.347 48.51 41.398 48.38 41.451 48.24 41.517 48.1 41.598 47.96 41.68 47.82 41.783 47.68 41.895 47.56 42.012 47.45 42.147 47.34 42.286 47.27 42.443 47.21 42.612 47.17 42.789 47.16 43.152 47.21 43.433 47.3 43.655 47.43 43.818 47.6 43.928 47.77 44.002 47.95 44.04 48.13 44.048 48.46 44.04 48.74 44.009 49.02 43.958 49.26 43.892 49.48 43.818 49.68 43.729 49.86 43.626 50.01 43.515 50.15 43.404 50.28 43.278 50.38 43.159 50.46 43.034 50.54 42.908 50.6 42.789 50.64 42.672 50.68 42.56 50.72 42.397 50.75 42.226 50.79 42.049 50.83 41.864 50.86 41.687 50.89 41.524 50.92 41.369 50.95 41.228"></polyline>
            <polyline id="Fill-454" fill="#FFFFFF" points="31.17 46.371 28.28 46.371 30.71 32.439 35.74 32.439 36.24 40.733 39.66 32.439 44.89 32.439 42.45 46.371 39.55 46.371 41.38 35.938 41.27 35.938 36.96 46.371 33.72 46.371 33.7 45.933 33.63 44.772 33.53 43.129 33.42 41.244 33.31 39.341 33.21 37.662 33.15 36.449 33.12 35.938 32.97 35.938 33 35.938 31.17 46.371"></polyline>
            <polyline id="Stroke-455" stroke="#FFFFFF" stroke-width="0.215" points="31.17 46.371 28.28 46.371 30.71 32.439 35.74 32.439 36.24 40.733 39.66 32.439 44.89 32.439 42.45 46.371 39.55 46.371 41.38 35.938 41.27 35.938 36.96 46.371 33.72 46.371 33.7 45.933 33.63 44.772 33.53 43.129 33.42 41.244 33.31 39.341 33.21 37.662 33.15 36.449 33.12 35.938 32.97 35.938 33 35.938 31.17 46.371"></polyline>
            <polyline id="Fill-456" fill="#FFFFFF" points="79.5 46.371 82.51 46.371 83.54 40.356 83.59 40.119 83.64 39.889 83.7 39.66 83.77 39.446 83.85 39.232 83.96 39.031 84.08 38.839 84.22 38.655 84.39 38.49 84.59 38.342 84.81 38.21 85.07 38.091 85.37 37.995 85.7 37.921 86.07 37.877 86.48 37.847 86.52 37.847 86.56 37.855 86.62 37.862 86.68 37.862 86.73 37.869 86.78 37.877 86.8 37.884 86.82 37.884 86.83 37.841 86.86 37.714 86.89 37.521 86.95 37.278 87.03 37.005 87.11 36.708 87.21 36.412 87.32 36.132 87.4 35.924 87.49 35.724 87.59 35.525 87.69 35.34 87.78 35.184 87.86 35.058 87.91 34.976 87.92 34.947 87.91 34.947 87.87 34.932 87.82 34.925 87.74 34.91 87.67 34.896 87.58 34.888 87.5 34.874 87.43 34.874 87.1 34.896 86.8 34.932 86.53 34.992 86.28 35.058 86.04 35.146 85.83 35.243 85.62 35.361 85.44 35.488 85.25 35.629 85.08 35.783 84.93 35.946 84.76 36.123 84.61 36.308 84.46 36.509 84.3 36.716 84.15 36.93 84.5 35.03 81.49 34.992 79.5 46.371"></polyline>
            <polyline id="Stroke-457" stroke="#FFFFFF" stroke-width="0.215" points="79.5 46.371 82.51 46.371 83.54 40.356 83.59 40.119 83.64 39.889 83.7 39.66 83.77 39.446 83.85 39.232 83.96 39.031 84.08 38.839 84.22 38.655 84.39 38.49 84.59 38.342 84.81 38.21 85.07 38.091 85.37 37.995 85.7 37.921 86.07 37.877 86.48 37.847 86.52 37.847 86.56 37.855 86.62 37.862 86.68 37.862 86.73 37.869 86.78 37.877 86.8 37.884 86.82 37.884 86.83 37.841 86.86 37.714 86.89 37.521 86.95 37.278 87.03 37.005 87.11 36.708 87.21 36.412 87.32 36.132 87.4 35.924 87.49 35.724 87.59 35.525 87.69 35.34 87.78 35.184 87.86 35.058 87.91 34.976 87.92 34.947 87.91 34.947 87.87 34.932 87.82 34.925 87.74 34.91 87.67 34.896 87.58 34.888 87.5 34.874 87.43 34.874 87.1 34.896 86.8 34.932 86.53 34.992 86.28 35.058 86.04 35.146 85.83 35.243 85.62 35.361 85.44 35.488 85.25 35.629 85.08 35.783 84.93 35.946 84.76 36.123 84.61 36.308 84.46 36.509 84.3 36.716 84.15 36.93 84.5 35.03 81.49 34.992 79.5 46.371"></polyline>
            <polyline id="Fill-458" fill="#FFFFFF" points="92.53 34.874 92.87 34.881 93.19 34.903 93.51 34.932 93.82 34.976 94.12 35.036 94.4 35.11 94.68 35.192 94.95 35.287 95.21 35.398 95.45 35.517 95.7 35.643 95.92 35.783 96.14 35.938 96.35 36.101 96.54 36.272 96.73 36.457 96.9 36.649 97.07 36.856 97.21 37.064 97.35 37.285 97.49 37.514 97.6 37.759 97.71 38.003 97.8 38.261 97.88 38.521 97.95 38.795 98.01 39.076 98.05 39.364 98.08 39.652 98.09 39.956 98.1 40.267 98.09 40.577 98.07 40.955 98.03 41.318 97.98 41.665 97.91 42.005 97.84 42.331 97.74 42.641 97.63 42.945 97.53 43.232 97.39 43.507 97.26 43.773 97.1 44.024 96.95 44.261 96.78 44.491 96.59 44.705 96.4 44.905 96.2 45.098 95.99 45.275 95.78 45.446 95.55 45.6 95.32 45.742 95.08 45.874 94.82 45.993 94.57 46.104 94.31 46.199 94.04 46.288 93.76 46.363 93.48 46.423 93.2 46.474 92.9 46.511 92.61 46.54 92.3 46.555 92 46.562 91.7 46.555 91.39 46.54 91.11 46.511 90.82 46.466 90.54 46.414 90.25 46.355 89.99 46.28 89.73 46.193 89.47 46.096 89.22 45.985 88.99 45.867 88.76 45.734 88.54 45.594 88.33 45.437 88.12 45.275 87.93 45.098 87.75 44.912 87.58 44.713 87.42 44.506 87.26 44.284 87.13 44.054 87 43.811 86.89 43.558 86.78 43.3 86.7 43.026 86.61 42.738 86.55 42.443 86.49 42.137 86.46 41.821 86.44 41.494 86.43 41.155 86.44 40.807 86.46 40.452 86.49 40.111 86.55 39.778 86.61 39.46 86.69 39.149 86.78 38.845 86.87 38.557 86.98 38.277 87.1 38.003 87.23 37.744 87.38 37.499 87.54 37.256 87.7 37.034 87.88 36.812 88.06 36.611 88.26 36.412 88.46 36.227 88.68 36.057 88.9 35.895 89.13 35.747 89.37 35.613 89.62 35.481 89.88 35.369 90.14 35.265 90.42 35.178 90.7 35.095 90.99 35.03 91.28 34.969 91.58 34.932 91.89 34.896 92.21 34.881 92.53 34.874"></polyline>
            <polyline id="Stroke-459" stroke="#FFFFFF" stroke-width="0.215" points="92.53 34.874 92.53 34.874 92.87 34.881 93.19 34.903 93.51 34.932 93.82 34.976 94.12 35.036 94.4 35.11 94.68 35.192 94.95 35.287 95.21 35.398 95.45 35.517 95.7 35.643 95.92 35.783 96.14 35.938 96.35 36.101 96.54 36.272 96.73 36.457 96.9 36.649 97.07 36.856 97.21 37.064 97.35 37.285 97.49 37.514 97.6 37.759 97.71 38.003 97.8 38.261 97.88 38.521 97.95 38.795 98.01 39.076 98.05 39.364 98.08 39.652 98.09 39.956 98.1 40.267 98.09 40.577 98.07 40.955 98.03 41.318 97.98 41.665 97.91 42.005 97.84 42.331 97.74 42.641 97.63 42.945 97.53 43.232 97.39 43.507 97.26 43.773 97.1 44.024 96.95 44.261 96.78 44.491 96.59 44.705 96.4 44.905 96.2 45.098 95.99 45.275 95.78 45.446 95.55 45.6 95.32 45.742 95.08 45.874 94.82 45.993 94.57 46.104 94.31 46.199 94.04 46.288 93.76 46.363 93.48 46.423 93.2 46.474 92.9 46.511 92.61 46.54 92.3 46.555 92 46.562 91.7 46.555 91.39 46.54 91.11 46.511 90.82 46.466 90.54 46.414 90.25 46.355 89.99 46.28 89.73 46.193 89.47 46.096 89.22 45.985 88.99 45.867 88.76 45.734 88.54 45.594 88.33 45.437 88.12 45.275 87.93 45.098 87.75 44.912 87.58 44.713 87.42 44.506 87.26 44.284 87.13 44.054 87 43.811 86.89 43.558 86.78 43.3 86.7 43.026 86.61 42.738 86.55 42.443 86.49 42.137 86.46 41.821 86.44 41.494 86.43 41.155 86.44 40.807 86.46 40.452 86.49 40.111 86.55 39.778 86.61 39.46 86.69 39.149 86.78 38.845 86.87 38.557 86.98 38.277 87.1 38.003 87.23 37.744 87.38 37.499 87.54 37.256 87.7 37.034 87.88 36.812 88.06 36.611 88.26 36.412 88.46 36.227 88.68 36.057 88.9 35.895 89.13 35.747 89.37 35.613 89.62 35.481 89.88 35.369 90.14 35.265 90.42 35.178 90.7 35.095 90.99 35.03 91.28 34.969 91.58 34.932 91.89 34.896 92.21 34.881 92.53 34.874"></polyline>
            <polyline id="Fill-460" fill="#FFFFFF" points="96.96 45.801 97.83 45.801 97.83 45.911 97.49 45.911 97.49 46.636 97.3 46.636 97.3 45.911 96.96 45.911 96.96 45.801"></polyline>
            <polyline id="Stroke-461" stroke="#FFFFFF" stroke-width="0.215" points="96.96 45.801 97.83 45.801 97.83 45.911 97.49 45.911 97.49 46.636 97.3 46.636 97.3 45.911 96.96 45.911 96.96 45.801"></polyline>
            <polyline id="Fill-462" fill="#FFFFFF" points="97.94 45.801 98.21 45.801 98.52 46.444 98.82 45.801 99.09 45.801 99.09 46.636 98.89 46.636 98.89 45.993 98.59 46.636 98.44 46.636 98.13 45.993 98.13 46.636 97.94 46.636 97.94 45.801"></polyline>
            <polyline id="Stroke-463" stroke="#FFFFFF" stroke-width="0.215" points="97.94 45.801 98.21 45.801 98.52 46.444 98.82 45.801 99.09 45.801 99.09 46.636 98.89 46.636 98.89 45.993 98.59 46.636 98.44 46.636 98.13 45.993 98.13 46.636 97.94 46.636 97.94 45.801"></polyline>
            <polyline id="Fill-464" fill="#EC1C2E" points="90.17 40.31 90.13 40.725 90.1 41.11 90.1 41.458 90.13 41.783 90.17 42.079 90.24 42.338 90.32 42.575 90.42 42.789 90.55 42.973 90.69 43.129 90.84 43.262 91.02 43.367 91.2 43.447 91.41 43.507 91.62 43.536 91.85 43.551 92.1 43.544 92.35 43.515 92.58 43.462 92.8 43.382 93.01 43.278 93.21 43.145 93.39 42.988 93.57 42.803 93.72 42.597 93.87 42.359 94.01 42.093 94.13 41.805 94.24 41.488 94.34 41.14 94.41 40.762 94.48 40.356 94.52 40.037 94.54 39.734 94.54 39.438 94.52 39.157 94.48 38.898 94.42 38.646 94.34 38.417 94.24 38.203 94.12 38.01 93.99 37.847 93.83 37.699 93.66 37.581 93.47 37.484 93.26 37.425 93.04 37.389 92.8 37.389 92.49 37.411 92.21 37.463 91.95 37.551 91.71 37.662 91.49 37.81 91.28 37.973 91.1 38.157 90.93 38.366 90.78 38.587 90.64 38.824 90.53 39.06 90.43 39.311 90.34 39.563 90.27 39.815 90.22 40.067 90.17 40.31"></polyline>
        </g>
    </g>
</svg>