<?xml version="1.0" encoding="UTF-8"?>
<svg width="126px" height="79px" viewBox="0 0 126 79" version="1.1" xmlns="http://www.w3.org/2000/svg" xmlns:xlink="http://www.w3.org/1999/xlink">
    <!-- Generator: Sketch 48.2 (47327) - http://www.bohemiancoding.com/sketch -->
    <title>Group 2</title>
    <desc>Created with Sketch.</desc>
    <defs></defs>
    <g id="Page-1" stroke="none" stroke-width="1" fill="none" fill-rule="evenodd">
        <g id="Group-2">
            <path d="M125.984,74.343 C125.984,76.653 124.111,78.523 121.803,78.523 L4.734,78.523 C2.426,78.523 0.555,76.653 0.555,74.343 L0.555,4.312 C0.555,2.002 2.426,0.13 4.734,0.13 L121.803,0.13 C124.111,0.13 125.984,2.002 125.984,4.312 L125.984,74.343" id="Fill-517" fill="#13457C"></path>
            <polyline id="Fill-518" fill="#FBB231" points="78.32 61.83 79.482 61.8 80.629 61.717 81.752 61.573 82.869 61.375 83.955 61.125 85.025 60.821 86.072 60.464 87.096 60.062 88.098 59.607 89.07 59.113 90.012 58.566 90.93 57.982 91.811 57.353 92.66 56.684 93.48 55.978 94.262 55.227 95.014 54.445 95.719 53.624 96.389 52.775 97.018 51.894 97.602 50.976 98.148 50.033 98.641 49.062 99.096 48.061 99.498 47.035 99.855 45.988 100.16 44.919 100.41 43.833 100.607 42.717 100.752 41.593 100.836 40.447 100.865 39.286 100.836 38.132 100.752 36.993 100.607 35.87 100.41 34.769 100.16 33.684 99.855 32.621 99.498 31.574 99.096 30.556 98.641 29.563 98.148 28.59 97.602 27.657 97.018 26.739 96.389 25.858 95.719 25.015 95.014 24.197 94.262 23.414 93.48 22.67 92.66 21.964 91.811 21.296 90.93 20.666 90.012 20.081 89.07 19.543 88.098 19.05 87.096 18.593 86.072 18.191 85.025 17.835 83.955 17.531 82.869 17.28 81.752 17.084 80.629 16.939 79.482 16.855 78.32 16.824 77.168 16.855 76.021 16.939 74.898 17.084 73.789 17.28 72.703 17.531 71.633 17.835 70.594 18.191 69.568 18.593 68.574 19.05 67.611 19.543 66.67 20.081 65.758 20.666 64.879 21.296 64.027 21.964 63.215 22.67 62.434 23.414 61.689 24.197 60.984 25.015 60.316 25.858 59.693 26.739 59.107 27.657 58.57 28.59 58.068 29.563 57.621 30.556 57.219 31.574 56.869 32.621 56.566 33.684 56.314 34.769 56.117 35.87 55.975 36.993 55.891 38.132 55.859 39.286 55.891 40.447 55.975 41.593 56.117 42.717 56.314 43.833 56.566 44.919 56.869 45.988 57.219 47.035 57.621 48.061 58.068 49.062 58.57 50.033 59.107 50.976 59.693 51.894 60.316 52.775 60.984 53.624 61.689 54.445 62.434 55.227 63.215 55.978 64.027 56.684 64.879 57.353 65.758 57.982 66.67 58.566 67.611 59.113 68.574 59.607 69.568 60.062 70.594 60.464 71.633 60.821 72.703 61.125 73.789 61.375 74.898 61.573 76.021 61.717 77.168 61.8 78.32 61.83"></polyline>
            <polyline id="Fill-519" fill="#EC1C2E" points="48.217 61.83 49.369 61.8 50.516 61.717 51.641 61.573 52.748 61.375 53.834 61.125 54.902 60.821 55.943 60.464 56.969 60.062 57.963 59.607 58.928 59.113 59.867 58.566 60.779 57.982 61.66 57.353 62.51 56.684 63.322 55.978 64.104 55.227 64.848 54.445 65.555 53.624 66.221 52.775 66.844 51.894 67.428 50.976 67.967 50.033 68.469 49.062 68.916 48.061 69.318 47.035 69.668 45.988 69.971 44.919 70.223 43.833 70.418 42.717 70.564 41.593 70.646 40.447 70.676 39.286 70.646 38.132 70.564 36.993 70.418 35.87 70.223 34.769 69.971 33.684 69.668 32.621 69.318 31.574 68.916 30.556 68.469 29.563 67.967 28.59 67.428 27.657 66.844 26.739 66.221 25.858 65.555 25.015 64.848 24.197 64.104 23.414 63.322 22.67 62.51 21.964 61.66 21.296 60.779 20.666 59.867 20.081 58.928 19.543 57.963 19.05 56.969 18.593 55.943 18.191 54.902 17.835 53.834 17.531 52.748 17.28 51.641 17.084 50.516 16.939 49.369 16.855 48.217 16.824 47.055 16.855 45.908 16.939 44.785 17.084 43.668 17.28 42.584 17.531 41.514 17.835 40.465 18.191 39.441 18.593 38.439 19.05 37.469 19.543 36.527 20.081 35.607 20.666 34.727 21.296 33.877 21.964 33.057 22.67 32.275 23.414 31.523 24.197 30.818 25.015 30.15 25.858 29.52 26.739 28.936 27.657 28.389 28.59 27.896 29.563 27.439 30.556 27.039 31.574 26.682 32.621 26.377 33.684 26.127 34.769 25.93 35.87 25.785 36.993 25.701 38.132 25.672 39.286 25.701 40.447 25.785 41.593 25.93 42.717 26.127 43.833 26.377 44.919 26.682 45.988 27.039 47.035 27.439 48.061 27.896 49.062 28.389 50.033 28.936 50.976 29.52 51.894 30.15 52.775 30.818 53.624 31.523 54.445 32.275 55.227 33.057 55.978 33.877 56.684 34.727 57.353 35.607 57.982 36.527 58.566 37.469 59.113 38.439 59.607 39.441 60.062 40.465 60.464 41.514 60.821 42.584 61.125 43.668 61.375 44.785 61.573 45.908 61.717 47.055 61.8 48.217 61.83"></polyline>
            <polyline id="Fill-520" fill="#FBB231" points="60.635 25.456 72.592 25.456 72.592 24.233 61.666 24.233 60.635 25.456"></polyline>
            <polyline id="Fill-521" fill="#FBB231" points="58.844 28.173 72.592 28.173 72.592 26.95 59.564 26.95 58.844 28.173"></polyline>
            <polyline id="Fill-522" fill="#FBB231" points="57.506 30.883 72.592 30.883 72.592 29.66 58.039 29.66 57.506 30.883"></polyline>
            <polyline id="Fill-523" fill="#FBB231" points="56.588 33.6 72.592 33.6 72.592 32.379 56.969 32.379 56.588 33.6"></polyline>
            <polyline id="Fill-524" fill="#FBB231" points="57.121 46.733 72.629 46.733 72.629 45.51 56.74 45.51 57.121 46.733"></polyline>
            <polyline id="Fill-525" fill="#FBB231" points="58.266 49.45 72.629 49.45 72.629 48.228 57.697 48.228 58.266 49.45"></polyline>
            <polyline id="Fill-526" fill="#FBB231" points="59.875 52.16 72.629 52.16 72.629 50.938 59.107 50.938 59.875 52.16"></polyline>
            <polyline id="Fill-527" fill="#FBB231" points="62.092 54.877 72.629 54.877 72.629 53.647 61.021 53.647 62.092 54.877"></polyline>
            <polyline id="Fill-528" fill="#FBB231" points="56.051 36.31 72.592 36.31 72.592 35.088 56.285 35.088 56.051 36.31"></polyline>
            <polyline id="Fill-529" fill="#FBB231" points="66.131 44.023 72.438 44.023 72.438 42.8 66.357 42.8 66.131 44.023"></polyline>
            <polyline id="Fill-530" fill="#FBB231" points="66.631 41.312 72.438 41.312 72.438 40.083 66.859 40.083 66.631 41.312"></polyline>
            <polyline id="Fill-531" fill="#FBB231" points="55.633 40.083 57.271 40.083 57.271 41.312 55.709 41.312 55.633 40.083"></polyline>
            <polyline id="Fill-532" fill="#FFFFFF" points="52.572 38.602 52.467 38.594 52.359 38.58 52.262 38.565 52.164 38.55 52.072 38.535 51.975 38.519 51.875 38.505 51.768 38.488 51.662 38.474 51.541 38.466 51.404 38.458 51.262 38.45 51.102 38.45 50.926 38.458 50.729 38.474 50.51 38.488 50.357 38.512 50.213 38.535 50.084 38.58 49.969 38.625 49.863 38.678 49.766 38.739 49.689 38.816 49.621 38.884 49.574 38.967 49.535 39.051 49.521 39.141 49.521 39.233 49.545 39.332 49.574 39.43 49.635 39.529 49.711 39.628 49.863 39.771 50.047 39.885 50.258 39.984 50.486 40.067 50.729 40.144 50.98 40.227 51.23 40.319 51.473 40.417 51.701 40.546 51.912 40.705 52.104 40.896 52.262 41.131 52.383 41.419 52.459 41.76 52.49 42.171 52.459 42.649 52.406 43.006 52.314 43.317 52.193 43.605 52.041 43.855 51.867 44.076 51.67 44.265 51.457 44.432 51.223 44.577 50.98 44.691 50.729 44.789 50.471 44.865 50.205 44.926 49.947 44.972 49.695 44.994 49.445 45.01 49.211 45.016 48.885 45.016 48.58 45.01 48.314 45.01 48.064 45.003 47.836 44.994 47.631 44.979 47.449 44.964 47.275 44.941 47.115 44.926 46.971 44.896 46.828 44.872 46.697 44.835 46.568 44.804 46.447 44.758 46.326 44.714 46.197 44.668 46.539 42.99 46.607 43.006 46.691 43.029 46.797 43.058 46.926 43.09 47.063 43.119 47.213 43.15 47.381 43.187 47.563 43.218 47.752 43.248 47.949 43.279 48.156 43.301 48.367 43.324 48.588 43.331 48.809 43.339 49.029 43.339 49.248 43.331 49.469 43.286 49.645 43.225 49.781 43.142 49.887 43.036 49.961 42.929 50.021 42.807 50.061 42.687 50.092 42.573 50.105 42.352 50.037 42.162 49.908 42.01 49.719 41.882 49.492 41.768 49.225 41.654 48.93 41.547 48.633 41.426 48.33 41.29 48.041 41.131 47.775 40.933 47.533 40.698 47.342 40.409 47.207 40.067 47.139 39.658 47.146 39.173 47.184 38.876 47.236 38.594 47.313 38.337 47.404 38.094 47.525 37.867 47.662 37.669 47.822 37.479 48.012 37.313 48.232 37.169 48.475 37.047 48.748 36.933 49.053 36.85 49.393 36.78 49.766 36.728 50.174 36.697 50.623 36.689 50.902 36.689 51.16 36.697 51.396 36.706 51.609 36.713 51.799 36.728 51.975 36.743 52.125 36.758 52.262 36.774 52.391 36.788 52.496 36.811 52.598 36.827 52.688 36.842 52.762 36.856 52.832 36.865 52.9 36.88 52.959 36.888 52.572 38.602"></polyline>
            <polyline id="Stroke-533" stroke="#FFFFFF" stroke-width="0.216" points="52.572 38.602 52.572 38.602 52.467 38.594 52.359 38.58 52.262 38.565 52.164 38.55 52.072 38.535 51.975 38.519 51.875 38.505 51.768 38.488 51.662 38.474 51.541 38.466 51.404 38.458 51.262 38.45 51.102 38.45 50.926 38.458 50.729 38.474 50.51 38.488 50.357 38.512 50.213 38.535 50.084 38.58 49.969 38.625 49.863 38.678 49.766 38.739 49.689 38.816 49.621 38.884 49.574 38.967 49.535 39.051 49.521 39.141 49.521 39.233 49.545 39.332 49.574 39.43 49.635 39.529 49.711 39.628 49.863 39.771 50.047 39.885 50.258 39.984 50.486 40.067 50.729 40.144 50.98 40.227 51.23 40.319 51.473 40.417 51.701 40.546 51.912 40.705 52.104 40.896 52.262 41.131 52.383 41.419 52.459 41.76 52.49 42.171 52.459 42.649 52.406 43.006 52.314 43.317 52.193 43.605 52.041 43.855 51.867 44.076 51.67 44.265 51.457 44.432 51.223 44.577 50.98 44.691 50.729 44.789 50.471 44.865 50.205 44.926 49.947 44.972 49.695 44.994 49.445 45.01 49.211 45.016 48.885 45.016 48.58 45.01 48.314 45.01 48.064 45.003 47.836 44.994 47.631 44.979 47.449 44.964 47.275 44.941 47.115 44.926 46.971 44.896 46.828 44.872 46.697 44.835 46.568 44.804 46.447 44.758 46.326 44.714 46.197 44.668 46.539 42.99 46.607 43.006 46.691 43.029 46.797 43.058 46.926 43.09 47.063 43.119 47.213 43.15 47.381 43.187 47.563 43.218 47.752 43.248 47.949 43.279 48.156 43.301 48.367 43.324 48.588 43.331 48.809 43.339 49.029 43.339 49.248 43.331 49.469 43.286 49.645 43.225 49.781 43.142 49.887 43.036 49.961 42.929 50.021 42.807 50.061 42.687 50.092 42.573 50.105 42.352 50.037 42.162 49.908 42.01 49.719 41.882 49.492 41.768 49.225 41.654 48.93 41.547 48.633 41.426 48.33 41.29 48.041 41.131 47.775 40.933 47.533 40.698 47.342 40.409 47.207 40.067 47.139 39.658 47.146 39.173 47.184 38.876 47.236 38.594 47.313 38.337 47.404 38.094 47.525 37.867 47.662 37.669 47.822 37.479 48.012 37.313 48.232 37.169 48.475 37.047 48.748 36.933 49.053 36.85 49.393 36.78 49.766 36.728 50.174 36.697 50.623 36.689 50.902 36.689 51.16 36.697 51.396 36.706 51.609 36.713 51.799 36.728 51.975 36.743 52.125 36.758 52.262 36.774 52.391 36.788 52.496 36.811 52.598 36.827 52.688 36.842 52.762 36.856 52.832 36.865 52.9 36.88 52.959 36.888 52.572 38.602"></polyline>
            <polyline id="Fill-534" fill="#FFFFFF" points="54.373 35.013 56.475 35.013 56.164 36.85 57.432 36.85 57.158 38.565 55.822 38.527 55.094 42.762 55.086 42.914 55.123 43.044 55.199 43.142 55.299 43.225 55.436 43.279 55.588 43.324 55.754 43.354 55.936 43.37 56.104 43.363 56.256 43.347 56.391 43.324 56.514 43.294 56.611 43.263 56.68 43.241 56.725 43.225 56.74 43.218 56.475 44.63 56.422 44.668 56.369 44.698 56.314 44.728 56.262 44.758 56.209 44.781 56.148 44.804 56.012 44.85 55.936 44.872 55.859 44.888 55.77 44.903 55.678 44.919 55.578 44.934 55.465 44.949 55.344 44.964 55.215 44.979 54.639 44.979 54.334 44.956 54.068 44.926 53.826 44.881 53.621 44.827 53.445 44.758 53.303 44.684 53.174 44.592 53.074 44.493 52.998 44.387 52.945 44.258 52.906 44.128 52.885 43.985 52.877 43.825 52.877 43.658 52.9 43.484 52.922 43.294 54.373 35.013"></polyline>
            <path d="M54.373,35.013 L56.475,35.013 L56.164,36.85 L57.432,36.85 L57.158,38.565 L55.822,38.527 L55.094,42.762 L55.086,42.914 L55.123,43.044 L55.199,43.142 L55.299,43.225 L55.436,43.279 L55.588,43.324 L55.754,43.354 L55.936,43.37 L56.104,43.363 L56.256,43.347 L56.391,43.324 L56.514,43.294 L56.611,43.263 L56.68,43.241 L56.725,43.225 L56.74,43.218 L56.475,44.63 L56.422,44.668 L56.369,44.698 L56.314,44.728 L56.262,44.758 L56.209,44.781 L56.148,44.804 L56.012,44.85 L55.936,44.872 L55.859,44.888 L55.77,44.903 L55.678,44.919 L55.578,44.934 L55.465,44.949 L55.344,44.964 L55.215,44.979 L54.639,44.979 L54.334,44.956 L54.068,44.926 L53.826,44.881 L53.621,44.827 L53.445,44.758 L53.303,44.684 L53.174,44.592 L53.074,44.493 L52.998,44.387 L52.945,44.258 L52.906,44.128 L52.885,43.985 L52.877,43.825 L52.877,43.658 L52.9,43.484 L52.922,43.294 L54.373,35.013 M59.107,41.426 L59.088,41.555 L59.08,41.691 L59.092,41.836 L59.123,41.98 L59.178,42.125 L59.238,42.263 L59.32,42.406 L59.412,42.534 L59.52,42.664 L59.633,42.779 L59.754,42.892 L59.891,42.982 L60.025,43.067 L60.18,43.134 L60.33,43.187 L60.482,43.218 L60.682,43.248 L60.869,43.271 L61.066,43.294 L61.266,43.309 L61.461,43.317 L61.666,43.317 L61.865,43.309 L62.068,43.294 L62.273,43.263 L62.48,43.225 L62.691,43.18 L62.896,43.112 L63.109,43.029 L63.33,42.936 L63.541,42.816 L63.764,42.687 L63.459,44.554 L63.338,44.614 L63.215,44.676 L63.094,44.72 L62.98,44.767 L62.867,44.804 L62.744,44.843 L62.623,44.872 L62.494,44.896 L62.357,44.919 L62.205,44.934 L62.047,44.949 L61.871,44.964 L61.674,44.972 L61.469,44.972 L61.234,44.979 L60.984,44.979 L60.611,44.972 L60.232,44.934 L59.854,44.881 L59.473,44.789 L59.102,44.676 L58.744,44.53 L58.402,44.342 L58.084,44.121 L57.787,43.863 L57.529,43.552 L57.311,43.202 L57.127,42.8 L56.998,42.352 L56.914,41.843 L56.893,41.282 L56.93,40.66 L56.961,40.417 L57.006,40.135 L57.066,39.841 L57.15,39.52 L57.266,39.196 L57.4,38.868 L57.576,38.535 L57.787,38.216 L58.031,37.912 L58.326,37.624 L58.66,37.366 L59.041,37.138 L59.48,36.948 L59.975,36.811 L60.521,36.721 L61.137,36.689 L61.432,36.697 L61.744,36.728 L62.053,36.78 L62.365,36.856 L62.67,36.971 L62.965,37.108 L63.238,37.29 L63.488,37.502 L63.717,37.76 L63.906,38.065 L64.059,38.413 L64.164,38.816 L64.225,39.27 L64.232,39.786 L64.18,40.363 L64.066,41.002 L64.027,41.465 L58.494,41.465 L58.844,39.968 L62.168,39.968 L62.184,39.78 L62.176,39.597 L62.16,39.43 L62.131,39.279 L62.076,39.134 L62.023,39.004 L61.947,38.891 L61.871,38.785 L61.781,38.694 L61.682,38.618 L61.568,38.55 L61.453,38.488 L61.334,38.444 L61.211,38.413 L61.082,38.39 L60.947,38.375 L60.801,38.383 L60.666,38.405 L60.537,38.437 L60.408,38.481 L60.277,38.542 L60.164,38.611 L60.049,38.694 L59.953,38.785 L59.854,38.891 L59.762,39.004 L59.68,39.127 L59.609,39.257 L59.541,39.393 L59.488,39.544 L59.443,39.696 L59.412,39.855 L59.107,41.426" id="Stroke-535" stroke="#FFFFFF" stroke-width="0.216"></path>
            <polyline id="Fill-536" fill="#FFFFFF" points="77.213 37.305 77.113 37.252 77.016 37.206 76.91 37.153 76.795 37.099 76.682 37.054 76.553 37.009 76.424 36.963 76.287 36.918 76.143 36.88 75.998 36.85 75.838 36.819 75.68 36.796 75.506 36.78 75.33 36.766 74.77 36.766 74.57 36.78 74.367 36.804 74.152 36.842 73.941 36.902 73.729 36.986 73.518 37.092 73.303 37.228 73.098 37.396 72.9 37.593 72.711 37.836 72.529 38.117 72.361 38.45 72.203 38.83 72.061 39.257 71.938 39.742 71.893 40.014 71.861 40.28 71.846 40.546 71.854 40.804 71.877 41.062 71.93 41.305 71.998 41.533 72.082 41.76 72.195 41.966 72.332 42.162 72.492 42.337 72.674 42.497 72.879 42.634 73.113 42.747 73.371 42.846 73.662 42.914 73.76 42.936 73.873 42.959 74.01 42.975 74.162 42.99 74.328 43.006 74.693 43.006 74.883 42.99 75.08 42.967 75.277 42.929 75.467 42.876 75.656 42.816 75.846 42.732 76.021 42.634 76.18 42.512 76.332 42.376 75.99 44.403 75.945 44.44 75.898 44.486 75.838 44.54 75.77 44.583 75.688 44.644 75.58 44.698 75.459 44.751 75.322 44.796 75.148 44.85 74.951 44.888 74.723 44.919 74.457 44.949 74.162 44.964 73.82 44.972 73.434 44.964 73.006 44.941 72.658 44.903 72.309 44.827 71.959 44.714 71.611 44.561 71.277 44.38 70.959 44.151 70.654 43.886 70.373 43.583 70.123 43.241 69.91 42.862 69.729 42.437 69.592 41.973 69.502 41.465 69.471 40.926 69.486 40.334 69.568 39.703 69.631 39.393 69.699 39.089 69.773 38.793 69.85 38.512 69.934 38.246 70.031 37.981 70.131 37.73 70.236 37.495 70.352 37.259 70.465 37.039 70.594 36.827 70.73 36.63 70.867 36.439 71.018 36.258 71.17 36.091 71.33 35.931 71.504 35.779 71.68 35.635 71.861 35.506 72.053 35.384 72.256 35.27 72.461 35.173 72.674 35.081 72.895 34.997 73.129 34.921 73.363 34.861 73.607 34.807 73.865 34.762 74.123 34.723 74.396 34.694 74.67 34.679 74.959 34.67 75.201 34.679 75.438 34.694 75.664 34.717 75.893 34.747 76.105 34.777 76.311 34.822 76.506 34.861 76.689 34.906 76.863 34.951 77.016 34.997 77.16 35.043 77.281 35.088 77.387 35.126 77.479 35.157 77.547 35.187 77.594 35.203 77.213 37.305"></polyline>
            <polyline id="Stroke-537" stroke="#FFFFFF" stroke-width="0.216" points="77.213 37.305 77.213 37.305 77.113 37.252 77.016 37.206 76.91 37.153 76.795 37.099 76.682 37.054 76.553 37.009 76.424 36.963 76.287 36.918 76.143 36.88 75.998 36.85 75.838 36.819 75.68 36.796 75.506 36.78 75.33 36.766 74.77 36.766 74.57 36.78 74.367 36.804 74.152 36.842 73.941 36.902 73.729 36.986 73.518 37.092 73.303 37.228 73.098 37.396 72.9 37.593 72.711 37.836 72.529 38.117 72.361 38.45 72.203 38.83 72.061 39.257 71.938 39.742 71.893 40.014 71.861 40.28 71.846 40.546 71.854 40.804 71.877 41.062 71.93 41.305 71.998 41.533 72.082 41.76 72.195 41.966 72.332 42.162 72.492 42.337 72.674 42.497 72.879 42.634 73.113 42.747 73.371 42.846 73.662 42.914 73.76 42.936 73.873 42.959 74.01 42.975 74.162 42.99 74.328 43.006 74.693 43.006 74.883 42.99 75.08 42.967 75.277 42.929 75.467 42.876 75.656 42.816 75.846 42.732 76.021 42.634 76.18 42.512 76.332 42.376 75.99 44.403 75.945 44.44 75.898 44.486 75.838 44.54 75.77 44.583 75.688 44.644 75.58 44.698 75.459 44.751 75.322 44.796 75.148 44.85 74.951 44.888 74.723 44.919 74.457 44.949 74.162 44.964 73.82 44.972 73.434 44.964 73.006 44.941 72.658 44.903 72.309 44.827 71.959 44.714 71.611 44.561 71.277 44.38 70.959 44.151 70.654 43.886 70.373 43.583 70.123 43.241 69.91 42.862 69.729 42.437 69.592 41.973 69.502 41.465 69.471 40.926 69.486 40.334 69.568 39.703 69.631 39.393 69.699 39.089 69.773 38.793 69.85 38.512 69.934 38.246 70.031 37.981 70.131 37.73 70.236 37.495 70.352 37.259 70.465 37.039 70.594 36.827 70.73 36.63 70.867 36.439 71.018 36.258 71.17 36.091 71.33 35.931 71.504 35.779 71.68 35.635 71.861 35.506 72.053 35.384 72.256 35.27 72.461 35.173 72.674 35.081 72.895 34.997 73.129 34.921 73.363 34.861 73.607 34.807 73.865 34.762 74.123 34.723 74.396 34.694 74.67 34.679 74.959 34.67 75.201 34.679 75.438 34.694 75.664 34.717 75.893 34.747 76.105 34.777 76.311 34.822 76.506 34.861 76.689 34.906 76.863 34.951 77.016 34.997 77.16 35.043 77.281 35.088 77.387 35.126 77.479 35.157 77.547 35.187 77.594 35.203 77.213 37.305"></polyline>
            <polyline id="Fill-538" fill="#FFFFFF" points="95.9 44.979 93.799 44.979 93.951 44.137 93.951 44.06 93.828 44.213 93.701 44.348 93.572 44.47 93.436 44.577 93.297 44.676 93.16 44.758 93.023 44.827 92.879 44.896 92.736 44.949 92.592 44.987 92.447 45.024 92.295 45.046 92.143 45.07 91.998 45.085 91.848 45.093 91.695 45.093 91.301 45.062 90.938 44.979 90.604 44.85 90.299 44.676 90.025 44.455 89.783 44.198 89.57 43.916 89.389 43.598 89.236 43.255 89.115 42.9 89.031 42.528 88.971 42.14 88.949 41.753 88.955 41.359 88.994 40.971 89.063 40.585 89.176 40.135 89.314 39.711 89.471 39.324 89.662 38.96 89.859 38.618 90.086 38.314 90.322 38.042 90.572 37.791 90.838 37.57 91.119 37.381 91.408 37.214 91.695 37.085 91.998 36.978 92.303 36.91 92.607 36.865 92.918 36.85 93.139 36.856 93.35 36.88 93.549 36.918 93.732 36.971 93.904 37.032 94.057 37.099 94.209 37.184 94.346 37.267 94.467 37.357 94.58 37.457 94.678 37.555 94.77 37.654 94.846 37.753 94.916 37.851 94.975 37.943 95.021 38.034 95.553 35.051 97.617 35.051 95.9 44.979"></polyline>
            <polyline id="Stroke-539" stroke="#FFFFFF" stroke-width="0.216" points="95.9 44.979 93.799 44.979 93.951 44.137 93.951 44.06 93.828 44.213 93.701 44.348 93.572 44.47 93.436 44.577 93.297 44.676 93.16 44.758 93.023 44.827 92.879 44.896 92.736 44.949 92.592 44.987 92.447 45.024 92.295 45.046 92.143 45.07 91.998 45.085 91.848 45.093 91.695 45.093 91.301 45.062 90.938 44.979 90.604 44.85 90.299 44.676 90.025 44.455 89.783 44.198 89.57 43.916 89.389 43.598 89.236 43.255 89.115 42.9 89.031 42.528 88.971 42.14 88.949 41.753 88.955 41.359 88.994 40.971 89.063 40.585 89.176 40.135 89.314 39.711 89.471 39.324 89.662 38.96 89.859 38.618 90.086 38.314 90.322 38.042 90.572 37.791 90.838 37.57 91.119 37.381 91.408 37.214 91.695 37.085 91.998 36.978 92.303 36.91 92.607 36.865 92.918 36.85 93.139 36.856 93.35 36.88 93.549 36.918 93.732 36.971 93.904 37.032 94.057 37.099 94.209 37.184 94.346 37.267 94.467 37.357 94.58 37.457 94.678 37.555 94.77 37.654 94.846 37.753 94.916 37.851 94.975 37.943 95.021 38.034 95.553 35.051 97.617 35.051 95.9 44.979"></polyline>
            <polyline id="Fill-540" fill="#FBB231" points="92.463 43.142 92.676 43.127 92.873 43.082 93.055 43.029 93.23 42.945 93.389 42.855 93.541 42.739 93.684 42.612 93.814 42.473 93.928 42.322 94.033 42.155 94.133 41.98 94.217 41.799 94.291 41.608 94.354 41.411 94.406 41.206 94.443 41.002 94.48 40.79 94.506 40.57 94.506 40.363 94.496 40.152 94.475 39.954 94.443 39.764 94.391 39.582 94.33 39.407 94.254 39.257 94.164 39.112 94.064 38.989 93.951 38.884 93.822 38.793 93.684 38.732 93.541 38.694 93.381 38.678 93.176 38.694 92.986 38.724 92.813 38.785 92.637 38.861 92.484 38.96 92.334 39.081 92.205 39.21 92.076 39.355 91.961 39.52 91.855 39.696 91.756 39.878 91.672 40.075 91.598 40.28 91.537 40.486 91.477 40.705 91.43 40.926 91.391 41.26 91.408 41.624 91.461 41.995 91.559 42.352 91.711 42.664 91.908 42.914 92.158 43.082 92.463 43.142"></polyline>
            <polyline id="Fill-541" fill="#FFFFFF" points="45.848 43.294 45.543 44.979 43.631 44.979 43.684 44.668 43.723 44.387 43.752 44.175 43.783 44.06 43.678 44.182 43.555 44.304 43.412 44.418 43.252 44.523 43.07 44.63 42.879 44.72 42.682 44.812 42.479 44.888 42.258 44.956 42.037 45.01 41.818 45.055 41.59 45.085 41.369 45.101 41.15 45.108 40.938 45.085 40.73 45.055 40.465 44.987 40.223 44.91 40.01 44.812 39.82 44.698 39.654 44.577 39.502 44.44 39.381 44.295 39.273 44.144 39.184 43.985 39.107 43.817 39.047 43.651 39.002 43.484 38.971 43.309 38.947 43.134 38.932 42.967 38.932 42.8 38.955 42.504 39.002 42.223 39.076 41.958 39.176 41.699 39.297 41.457 39.434 41.237 39.594 41.025 39.775 40.834 39.965 40.66 40.178 40.5 40.396 40.356 40.625 40.234 40.867 40.13 41.119 40.045 41.377 39.977 41.643 39.931 41.658 39.931 41.695 39.923 41.748 39.916 41.832 39.908 41.924 39.893 42.029 39.885 42.143 39.87 42.273 39.855 42.402 39.841 42.531 39.825 42.668 39.817 42.789 39.802 42.91 39.795 43.023 39.786 43.129 39.78 43.389 39.78 43.572 39.786 43.738 39.795 43.904 39.795 44.041 39.802 44.148 39.809 44.223 39.817 44.246 39.817 44.262 39.764 44.307 39.628 44.346 39.467 44.359 39.324 44.33 39.157 44.262 39.004 44.17 38.868 44.049 38.754 43.904 38.657 43.746 38.588 43.563 38.542 43.365 38.527 43.152 38.519 42.924 38.512 42.689 38.512 42.447 38.519 42.197 38.535 41.953 38.557 41.711 38.58 41.475 38.611 41.248 38.64 41.027 38.678 40.83 38.716 40.648 38.754 40.48 38.801 40.346 38.845 40.238 38.899 40.154 38.944 40.693 37.115 40.861 37.047 41.027 36.986 41.211 36.933 41.393 36.894 41.574 36.856 41.771 36.827 41.969 36.796 42.174 36.78 42.387 36.766 42.605 36.758 42.834 36.75 43.563 36.75 43.828 36.758 44.094 36.766 44.307 36.78 44.535 36.819 44.771 36.872 45.012 36.941 45.246 37.032 45.477 37.138 45.703 37.267 45.916 37.411 46.105 37.579 46.273 37.76 46.426 37.965 46.539 38.193 46.615 38.437 46.66 38.694 46.66 38.982 46.615 39.286 45.848 43.294"></polyline>
            <polyline id="Stroke-542" stroke="#FFFFFF" stroke-width="0.216" points="45.848 43.294 45.543 44.979 43.631 44.979 43.684 44.668 43.723 44.387 43.752 44.175 43.783 44.06 43.678 44.182 43.555 44.304 43.412 44.418 43.252 44.523 43.07 44.63 42.879 44.72 42.682 44.812 42.479 44.888 42.258 44.956 42.037 45.01 41.818 45.055 41.59 45.085 41.369 45.101 41.15 45.108 40.938 45.085 40.73 45.055 40.465 44.987 40.223 44.91 40.01 44.812 39.82 44.698 39.654 44.577 39.502 44.44 39.381 44.295 39.273 44.144 39.184 43.985 39.107 43.817 39.047 43.651 39.002 43.484 38.971 43.309 38.947 43.134 38.932 42.967 38.932 42.8 38.955 42.504 39.002 42.223 39.076 41.958 39.176 41.699 39.297 41.457 39.434 41.237 39.594 41.025 39.775 40.834 39.965 40.66 40.178 40.5 40.396 40.356 40.625 40.234 40.867 40.13 41.119 40.045 41.377 39.977 41.643 39.931 41.658 39.931 41.695 39.923 41.748 39.916 41.832 39.908 41.924 39.893 42.029 39.885 42.143 39.87 42.273 39.855 42.402 39.841 42.531 39.825 42.668 39.817 42.789 39.802 42.91 39.795 43.023 39.786 43.129 39.78 43.389 39.78 43.572 39.786 43.738 39.795 43.904 39.795 44.041 39.802 44.148 39.809 44.223 39.817 44.246 39.817 44.262 39.764 44.307 39.628 44.346 39.467 44.359 39.324 44.33 39.157 44.262 39.004 44.17 38.868 44.049 38.754 43.904 38.657 43.746 38.588 43.563 38.542 43.365 38.527 43.152 38.519 42.924 38.512 42.689 38.512 42.447 38.519 42.197 38.535 41.953 38.557 41.711 38.58 41.475 38.611 41.248 38.64 41.027 38.678 40.83 38.716 40.648 38.754 40.48 38.801 40.346 38.845 40.238 38.899 40.154 38.944 40.693 37.115 40.861 37.047 41.027 36.986 41.211 36.933 41.393 36.894 41.574 36.856 41.771 36.827 41.969 36.796 42.174 36.78 42.387 36.766 42.605 36.758 42.834 36.75 43.563 36.75 43.828 36.758 44.094 36.766 44.307 36.78 44.535 36.819 44.771 36.872 45.012 36.941 45.246 37.032 45.477 37.138 45.703 37.267 45.916 37.411 46.105 37.579 46.273 37.76 46.426 37.965 46.539 38.193 46.615 38.437 46.66 38.694 46.66 38.982 46.615 39.286 45.848 43.294"></polyline>
            <polyline id="Fill-543" fill="#EC1C2E" points="44.02 41.312 44.012 41.275 43.98 41.237 43.936 41.214 43.859 41.199 43.775 41.184 43.678 41.176 43.449 41.176 43.326 41.184 43.197 41.199 43.076 41.214 42.955 41.23 42.842 41.245 42.734 41.267 42.645 41.29 42.561 41.312 42.508 41.327 42.447 41.351 42.363 41.381 42.279 41.419 42.182 41.465 42.082 41.518 41.977 41.571 41.877 41.632 41.771 41.707 41.674 41.783 41.582 41.875 41.498 41.966 41.422 42.064 41.369 42.171 41.322 42.292 41.301 42.413 41.293 42.672 41.332 42.876 41.406 43.029 41.506 43.142 41.619 43.218 41.748 43.263 41.869 43.286 41.992 43.294 42.221 43.286 42.426 43.263 42.623 43.232 42.795 43.187 42.949 43.134 43.092 43.067 43.221 42.998 43.336 42.914 43.436 42.838 43.525 42.747 43.602 42.664 43.662 42.573 43.715 42.482 43.76 42.391 43.799 42.307 43.82 42.223 43.883 42.004 43.936 41.753 43.98 41.51 44.02 41.312"></polyline>
            <polyline id="Fill-544" fill="#FFFFFF" points="29.877 44.979 27.813 44.979 29.535 35.013 33.127 35.013 33.467 40.926 35.949 35.013 39.699 35.013 37.938 44.979 35.873 44.979 37.178 37.533 37.096 37.533 34.006 44.979 31.676 44.979 31.662 44.668 31.607 43.84 31.539 42.664 31.387 39.954 31.318 38.763 31.266 37.898 31.25 37.533 31.137 37.533 29.877 44.979"></polyline>
            <polyline id="Stroke-545" stroke="#FFFFFF" stroke-width="0.216" points="29.877 44.979 27.813 44.979 29.535 35.013 33.127 35.013 33.467 40.926 35.949 35.013 39.699 35.013 37.938 44.979 35.873 44.979 37.178 37.533 37.096 37.533 34.006 44.979 31.676 44.979 31.662 44.668 31.607 43.84 31.539 42.664 31.387 39.954 31.318 38.763 31.266 37.898 31.25 37.533 31.137 37.533 29.877 44.979"></polyline>
            <polyline id="Fill-546" fill="#FFFFFF" points="83.521 43.294 83.211 44.979 81.305 44.979 81.32 44.668 81.328 44.395 81.328 44.19 81.344 44.099 81.244 44.213 81.129 44.326 80.992 44.432 80.842 44.54 80.682 44.637 80.5 44.728 80.311 44.82 80.121 44.896 79.914 44.956 79.703 45.016 79.49 45.055 79.279 45.085 79.057 45.101 78.846 45.108 78.639 45.085 78.436 45.055 78.162 44.987 77.92 44.91 77.707 44.812 77.51 44.698 77.342 44.577 77.197 44.44 77.076 44.295 76.969 44.144 76.879 43.985 76.811 43.817 76.75 43.651 76.713 43.484 76.682 43.309 76.658 43.134 76.643 42.967 76.643 42.8 76.658 42.504 76.705 42.223 76.773 41.958 76.871 41.699 76.984 41.457 77.131 41.237 77.289 41.025 77.463 40.834 77.662 40.66 77.865 40.5 78.086 40.356 78.32 40.234 78.557 40.13 78.807 40.045 79.057 39.977 79.314 39.931 79.33 39.931 79.369 39.923 79.422 39.916 79.498 39.908 79.596 39.893 79.703 39.885 79.816 39.87 79.938 39.855 80.066 39.841 80.203 39.825 80.332 39.817 80.463 39.802 80.584 39.795 80.689 39.786 80.795 39.78 81.061 39.78 81.244 39.786 81.418 39.795 81.586 39.795 81.729 39.802 81.852 39.809 81.92 39.817 81.951 39.817 81.965 39.764 81.988 39.628 82.01 39.467 82.025 39.324 81.994 39.157 81.936 39.004 81.836 38.868 81.721 38.754 81.586 38.657 81.426 38.588 81.258 38.542 81.076 38.527 80.863 38.519 80.637 38.512 80.4 38.512 80.158 38.519 79.906 38.535 79.664 38.557 79.422 38.58 79.186 38.611 78.959 38.64 78.738 38.678 78.543 38.716 78.359 38.754 78.191 38.801 78.055 38.845 77.949 38.899 77.865 38.944 78.398 37.115 78.564 37.047 78.738 36.986 78.912 36.933 79.096 36.894 79.285 36.856 79.475 36.827 79.672 36.796 79.877 36.78 80.09 36.766 80.311 36.758 80.529 36.75 81.244 36.75 81.502 36.758 81.76 36.766 81.973 36.78 82.201 36.819 82.436 36.872 82.68 36.941 82.914 37.032 83.148 37.138 83.377 37.267 83.59 37.411 83.779 37.579 83.955 37.76 84.105 37.965 84.219 38.193 84.303 38.437 84.355 38.694 84.355 38.982 84.318 39.286 83.521 43.294"></polyline>
            <polyline id="Fill-547" fill="#FFFFFF" points="83.211 45.032 83.256 44.987 83.566 43.301 83.475 43.286 83.164 44.972 83.211 44.926 83.211 45.032 83.248 45.024 83.256 44.987 83.211 45.032"></polyline>
            <polyline id="Fill-548" fill="#FFFFFF" points="81.258 44.979 81.305 45.032 83.211 45.032 83.211 44.926 81.305 44.926 81.35 44.979 81.258 44.979 81.252 45.032 81.305 45.032 81.258 44.979"></polyline>
            <polyline id="Fill-549" fill="#FFFFFF" points="81.381 44.128 81.313 44.068 81.281 44.19 81.273 44.395 81.273 44.668 81.258 44.979 81.35 44.979 81.365 44.668 81.381 44.395 81.371 44.19 81.371 44.128 81.305 44.068 81.381 44.128"></polyline>
            <polyline id="Fill-550" fill="#FFFFFF" points="78.428 45.101 78.428 45.101 78.639 45.131 78.846 45.153 79.057 45.147 79.279 45.131 79.498 45.101 79.711 45.062 79.922 45.003 80.135 44.941 80.324 44.865 80.521 44.775 80.703 44.684 80.863 44.577 81.023 44.47 81.16 44.365 81.281 44.242 81.381 44.128 81.305 44.068 81.205 44.182 81.1 44.288 80.963 44.395 80.818 44.501 80.658 44.592 80.477 44.684 80.295 44.775 80.105 44.85 79.906 44.91 79.695 44.972 79.482 45.01 79.279 45.039 79.057 45.055 78.846 45.062 78.639 45.039 78.441 45.01 78.428 45.101"></polyline>
            <polyline id="Fill-551" fill="#FFFFFF" points="76.59 42.8 76.59 42.8 76.598 42.967 76.613 43.134 76.635 43.317 76.666 43.491 76.705 43.658 76.766 43.833 76.834 44.007 76.932 44.167 77.039 44.326 77.16 44.47 77.313 44.614 77.486 44.736 77.684 44.858 77.904 44.956 78.152 45.032 78.428 45.101 78.441 45.01 78.17 44.941 77.936 44.865 77.729 44.767 77.531 44.66 77.371 44.54 77.234 44.409 77.113 44.265 77.008 44.121 76.926 43.962 76.855 43.802 76.795 43.644 76.758 43.476 76.727 43.301 76.705 43.134 76.689 42.967 76.697 42.8 76.59 42.8"></polyline>
            <polyline id="Fill-552" fill="#FFFFFF" points="79.314 39.885 79.314 39.885 79.051 39.931 78.793 40 78.543 40.083 78.299 40.189 78.063 40.31 77.834 40.463 77.631 40.623 77.434 40.804 77.25 40.994 77.092 41.206 76.939 41.434 76.826 41.685 76.727 41.943 76.658 42.216 76.613 42.504 76.59 42.8 76.697 42.8 76.705 42.504 76.75 42.231 76.818 41.973 76.916 41.715 77.031 41.479 77.168 41.267 77.328 41.054 77.494 40.865 77.689 40.698 77.896 40.538 78.107 40.402 78.344 40.28 78.57 40.175 78.822 40.091 79.064 40.022 79.314 39.977 79.314 39.885"></polyline>
            <polyline id="Fill-553" fill="#FFFFFF" points="80.879 39.726 80.795 39.726 80.689 39.742 80.584 39.751 80.463 39.757 80.332 39.771 80.203 39.78 80.066 39.795 79.938 39.809 79.816 39.825 79.703 39.841 79.596 39.847 79.498 39.863 79.422 39.87 79.361 39.878 79.33 39.885 79.314 39.885 79.314 39.977 79.33 39.977 79.377 39.968 79.422 39.962 79.498 39.954 79.596 39.939 79.703 39.931 79.816 39.916 79.938 39.9 80.066 39.885 80.203 39.87 80.332 39.863 80.463 39.847 80.584 39.841 80.689 39.832 80.879 39.832 80.879 39.726"></polyline>
            <polyline id="Fill-554" fill="#FFFFFF" points="81.904 39.809 81.951 39.771 81.92 39.771 81.852 39.764 81.729 39.757 81.586 39.742 81.244 39.742 81.061 39.726 80.879 39.726 80.879 39.832 81.244 39.832 81.418 39.847 81.729 39.847 81.852 39.855 81.92 39.863 81.951 39.863 81.994 39.825 81.951 39.863 81.988 39.87 81.994 39.825 81.904 39.809"></polyline>
            <polyline id="Fill-555" fill="#FFFFFF" points="81.98 39.324 81.973 39.324 81.965 39.467 81.941 39.62 81.92 39.757 81.904 39.809 81.994 39.825 82.01 39.771 82.033 39.634 82.057 39.467 82.08 39.324 81.98 39.324"></polyline>
            <polyline id="Fill-556" fill="#FFFFFF" points="81.076 38.572 81.076 38.58 81.252 38.588 81.41 38.634 81.563 38.701 81.691 38.793 81.797 38.899 81.889 39.028 81.951 39.164 81.98 39.324 82.07 39.324 82.041 39.15 81.98 38.982 81.873 38.839 81.752 38.716 81.607 38.611 81.439 38.542 81.266 38.497 81.076 38.474 81.076 38.572"></polyline>
            <polyline id="Fill-557" fill="#FFFFFF" points="77.82 38.937 77.896 38.982 77.973 38.944 78.07 38.891 78.199 38.845 78.367 38.801 78.549 38.763 78.746 38.724 78.967 38.686 79.186 38.657 79.422 38.625 79.664 38.602 79.906 38.58 80.158 38.565 80.863 38.565 81.076 38.572 81.076 38.481 80.863 38.474 80.637 38.458 80.4 38.458 80.158 38.474 79.906 38.488 79.664 38.512 79.422 38.535 79.186 38.565 78.951 38.594 78.73 38.634 78.533 38.672 78.352 38.71 78.186 38.754 78.041 38.801 77.926 38.853 77.834 38.906 77.912 38.952 77.82 38.937"></polyline>
            <polyline id="Fill-558" fill="#FFFFFF" points="78.383 37.069 78.352 37.108 77.82 38.937 77.912 38.952 78.441 37.122 78.412 37.161 78.383 37.069 78.359 37.077 78.352 37.108 78.383 37.069"></polyline>
            <polyline id="Fill-559" fill="#FFFFFF" points="81.76 36.721 81.76 36.721 81.502 36.706 81.244 36.697 80.529 36.697 80.311 36.713 80.09 36.721 79.877 36.737 79.672 36.75 79.467 36.78 79.279 36.811 79.088 36.85 78.904 36.888 78.723 36.941 78.549 37.001 78.383 37.069 78.412 37.161 78.58 37.092 78.754 37.032 78.92 36.978 79.104 36.941 79.293 36.902 79.482 36.872 79.672 36.842 79.877 36.827 80.09 36.811 80.311 36.804 81.244 36.804 81.502 36.811 81.76 36.811 81.76 36.721"></polyline>
            <polyline id="Fill-560" fill="#FFFFFF" points="84.363 39.294 84.363 39.294 84.402 38.982 84.402 38.694 84.35 38.427 84.266 38.177 84.145 37.943 83.992 37.73 83.809 37.541 83.619 37.373 83.4 37.228 83.172 37.092 82.93 36.986 82.693 36.894 82.443 36.827 82.207 36.774 81.973 36.737 81.76 36.721 81.76 36.811 81.973 36.827 82.191 36.865 82.428 36.918 82.664 36.986 82.898 37.077 83.125 37.184 83.354 37.305 83.559 37.449 83.748 37.615 83.914 37.791 84.066 37.987 84.174 38.209 84.258 38.444 84.311 38.694 84.311 38.982 84.271 39.279 84.363 39.294"></polyline>
            <polyline id="Fill-561" fill="#FFFFFF" points="83.566 43.301 83.566 43.301 84.363 39.294 84.271 39.279 83.475 43.286 83.566 43.301"></polyline>
            <polyline id="Fill-562" fill="#FBB231" points="81.684 41.312 81.668 41.267 81.639 41.23 81.586 41.206 81.508 41.184 81.426 41.176 81.328 41.168 81.213 41.168 81.1 41.176 80.977 41.191 80.857 41.206 80.736 41.222 80.621 41.237 80.508 41.26 80.408 41.275 80.311 41.298 80.234 41.312 80.182 41.32 80.121 41.343 80.045 41.366 79.961 41.396 79.861 41.441 79.77 41.488 79.664 41.541 79.566 41.608 79.467 41.677 79.369 41.76 79.285 41.843 79.201 41.943 79.135 42.049 79.08 42.162 79.035 42.284 79.012 42.413 79.004 42.672 79.041 42.876 79.104 43.029 79.193 43.142 79.307 43.218 79.438 43.263 79.566 43.286 79.695 43.294 79.922 43.286 80.135 43.263 80.332 43.225 80.508 43.173 80.674 43.112 80.818 43.044 80.955 42.967 81.076 42.876 81.184 42.793 81.273 42.695 81.357 42.603 81.426 42.504 81.479 42.413 81.516 42.322 81.547 42.231 81.57 42.148 81.6 41.935 81.639 41.715 81.668 41.503 81.684 41.312"></polyline>
            <polyline id="Fill-563" fill="#FFFFFF" points="97.32 43.94 97.336 43.764 97.396 43.559 97.504 43.377 97.633 43.218 97.791 43.09 97.973 42.998 98.17 42.936 98.383 42.914 98.598 42.936 98.793 42.998 98.977 43.09 99.135 43.218 99.264 43.377 99.369 43.559 99.432 43.764 99.447 43.94 99.219 43.94 99.211 43.802 99.166 43.635 99.09 43.484 98.99 43.354 98.869 43.248 98.727 43.173 98.559 43.119 98.383 43.104 98.209 43.119 98.043 43.173 97.896 43.248 97.775 43.354 97.678 43.484 97.602 43.635 97.557 43.802 97.541 43.94 97.32 43.94"></polyline>
            <polyline id="Fill-564" fill="#FFFFFF" points="98.004 43.94 98.004 43.484 98.422 43.484 98.514 43.491 98.598 43.506 98.656 43.529 98.711 43.559 98.748 43.605 98.777 43.651 98.793 43.703 98.801 43.757 98.793 43.825 98.777 43.878 98.756 43.924 98.74 43.94 98.422 43.94 98.451 43.931 98.504 43.924 98.551 43.909 98.59 43.894 98.619 43.871 98.635 43.847 98.65 43.811 98.65 43.757 98.641 43.719 98.627 43.688 98.602 43.674 98.58 43.658 98.543 43.651 98.504 43.644 98.193 43.644 98.193 43.94 98.004 43.94"></polyline>
            <polyline id="Fill-565" fill="#FFFFFF" points="97.32 43.94 97.314 43.985 97.336 44.205 97.396 44.409 97.504 44.592 97.633 44.744 97.791 44.872 97.973 44.972 98.17 45.032 98.383 45.055 98.598 45.032 98.793 44.972 98.977 44.872 99.135 44.744 99.264 44.592 99.369 44.409 99.432 44.205 99.455 43.985 99.447 43.94 99.219 43.94 99.227 43.985 99.211 44.167 99.166 44.334 99.09 44.479 98.99 44.606 98.869 44.714 98.727 44.796 98.559 44.85 98.383 44.865 98.209 44.85 98.043 44.796 97.896 44.714 97.775 44.606 97.678 44.479 97.602 44.334 97.557 44.167 97.541 43.985 97.541 43.94 97.32 43.94"></polyline>
            <polyline id="Fill-566" fill="#FFFFFF" points="98.004 43.94 98.004 44.403 98.193 44.403 98.193 44.023 98.383 44.023 98.611 44.403 98.762 44.403 98.535 44.023 98.59 44.023 98.641 44.007 98.688 43.992 98.727 43.962 98.74 43.94 98.422 43.94 98.383 43.947 98.193 43.947 98.193 43.94 98.004 43.94"></polyline>
            <path d="M98.383,44.865 L98.559,44.85 L98.727,44.796 L98.869,44.714 L98.99,44.606 L99.09,44.479 L99.166,44.334 L99.211,44.167 L99.227,43.985 L99.211,43.802 L99.166,43.635 L99.09,43.484 L98.99,43.354 L98.869,43.248 L98.727,43.173 L98.559,43.119 L98.383,43.104 L98.209,43.119 L98.043,43.173 L97.896,43.248 L97.775,43.354 L97.678,43.484 L97.602,43.635 L97.557,43.802 L97.541,43.985 L97.557,44.167 L97.602,44.334 L97.678,44.479 L97.775,44.606 L97.896,44.714 L98.043,44.796 L98.209,44.85 L98.383,44.865 M98.383,43.947 L98.451,43.931 L98.504,43.924 L98.551,43.909 L98.59,43.894 L98.619,43.871 L98.635,43.847 L98.65,43.811 L98.65,43.757 L98.641,43.719 L98.627,43.688 L98.602,43.674 L98.58,43.658 L98.543,43.651 L98.504,43.644 L98.193,43.644 L98.193,43.947 L98.383,43.947 M98.193,44.403 L98.004,44.403 L98.004,43.484 L98.422,43.484 L98.514,43.491 L98.598,43.506 L98.656,43.529 L98.711,43.559 L98.748,43.605 L98.777,43.651 L98.793,43.703 L98.801,43.757 L98.793,43.825 L98.777,43.878 L98.756,43.924 L98.727,43.962 L98.688,43.992 L98.641,44.007 L98.59,44.023 L98.535,44.023 L98.762,44.403 L98.611,44.403 L98.383,44.023 L98.193,44.023 L98.193,44.403 M97.314,43.985 L97.336,43.764 L97.396,43.559 L97.504,43.377 L97.633,43.218 L97.791,43.09 L97.973,42.998 L98.17,42.936 L98.383,42.914 L98.598,42.936 L98.793,42.998 L98.977,43.09 L99.135,43.218 L99.264,43.377 L99.369,43.559 L99.432,43.764 L99.455,43.985 L99.432,44.205 L99.369,44.409 L99.264,44.592 L99.135,44.744 L98.977,44.872 L98.793,44.972 L98.598,45.032 L98.383,45.055 L98.17,45.032 L97.973,44.972 L97.791,44.872 L97.633,44.744 L97.504,44.592 L97.396,44.409 L97.336,44.205 L97.314,43.985" id="Stroke-567" stroke="#FFFFFF" stroke-width="0.216"></path>
            <polyline id="Fill-568" fill="#FFFFFF" points="84.09 44.979 86.23 44.979 86.998 40.66 87.027 40.494 87.072 40.326 87.119 40.159 87.18 39.992 87.256 39.825 87.346 39.665 87.445 39.514 87.568 39.369 87.703 39.241 87.855 39.119 88.029 39.004 88.227 38.913 88.447 38.839 88.689 38.778 88.955 38.732 89.252 38.716 89.441 38.716 89.783 36.766 89.57 36.78 89.365 36.804 89.176 36.842 88.994 36.894 88.826 36.955 88.668 37.032 88.516 37.115 88.373 37.206 88.234 37.313 88.105 37.419 87.984 37.541 87.863 37.661 87.748 37.791 87.637 37.934 87.521 38.071 87.414 38.223 87.643 36.85 85.51 36.85 84.09 44.979"></polyline>
            <polyline id="Stroke-569" stroke="#FFFFFF" stroke-width="0.216" points="84.09 44.979 86.23 44.979 86.998 40.66 87.027 40.494 87.072 40.326 87.119 40.159 87.18 39.992 87.256 39.825 87.346 39.665 87.445 39.514 87.568 39.369 87.703 39.241 87.855 39.119 88.029 39.004 88.227 38.913 88.447 38.839 88.689 38.778 88.955 38.732 89.252 38.716 89.441 38.716 89.783 36.766 89.57 36.78 89.365 36.804 89.176 36.842 88.994 36.894 88.826 36.955 88.668 37.032 88.516 37.115 88.373 37.206 88.234 37.313 88.105 37.419 87.984 37.541 87.863 37.661 87.748 37.791 87.637 37.934 87.521 38.071 87.414 38.223 87.643 36.85 85.51 36.85 84.09 44.979"></polyline>
            <polyline id="Fill-570" fill="#FFFFFF" points="63.99 44.979 66.168 44.979 66.896 40.66 66.928 40.494 66.965 40.334 67.004 40.175 67.057 40.022 67.117 39.87 67.193 39.726 67.283 39.59 67.391 39.461 67.512 39.345 67.648 39.233 67.814 39.141 67.998 39.058 68.211 38.989 68.445 38.93 68.703 38.891 69 38.868 69.021 38.868 69.053 38.876 69.09 38.884 69.129 38.884 69.168 38.891 69.197 38.899 69.219 38.906 69.227 38.906 69.236 38.876 69.258 38.785 69.287 38.649 69.326 38.481 69.379 38.284 69.432 38.071 69.502 37.859 69.568 37.645 69.631 37.502 69.707 37.357 69.781 37.214 69.857 37.085 69.926 36.971 69.979 36.88 70.016 36.827 70.031 36.804 70.023 36.804 69.994 36.796 69.955 36.788 69.902 36.78 69.85 36.78 69.789 36.774 69.736 36.766 69.684 36.766 69.447 36.78 69.236 36.804 69.037 36.842 68.855 36.888 68.68 36.948 68.521 37.025 68.377 37.099 68.24 37.19 68.111 37.29 67.99 37.404 67.877 37.518 67.762 37.645 67.648 37.776 67.541 37.921 67.428 38.071 67.314 38.223 67.588 36.85 65.41 36.85 63.99 44.979"></polyline>
            <polyline id="Stroke-571" stroke="#FFFFFF" stroke-width="0.216" points="63.99 44.979 66.168 44.979 66.896 40.66 66.928 40.494 66.965 40.334 67.004 40.175 67.057 40.022 67.117 39.87 67.193 39.726 67.283 39.59 67.391 39.461 67.512 39.345 67.648 39.233 67.814 39.141 67.998 39.058 68.211 38.989 68.445 38.93 68.703 38.891 69 38.868 69.021 38.868 69.053 38.876 69.09 38.884 69.129 38.884 69.168 38.891 69.197 38.899 69.219 38.906 69.227 38.906 69.236 38.876 69.258 38.785 69.287 38.649 69.326 38.481 69.379 38.284 69.432 38.071 69.502 37.859 69.568 37.645 69.631 37.502 69.707 37.357 69.781 37.214 69.857 37.085 69.926 36.971 69.979 36.88 70.016 36.827 70.031 36.804 70.023 36.804 69.994 36.796 69.955 36.788 69.902 36.78 69.85 36.78 69.789 36.774 69.736 36.766 69.684 36.766 69.447 36.78 69.236 36.804 69.037 36.842 68.855 36.888 68.68 36.948 68.521 37.025 68.377 37.099 68.24 37.19 68.111 37.29 67.99 37.404 67.877 37.518 67.762 37.645 67.648 37.776 67.541 37.921 67.428 38.071 67.314 38.223 67.588 36.85 65.41 36.85 63.99 44.979"></polyline>
            <polyline id="Fill-572" fill="#FBB231" points="97.336 52.965 97.336 52.934 97.396 52.737 97.504 52.562 97.633 52.411 97.791 52.289 97.973 52.197 98.17 52.145 98.383 52.122 98.598 52.145 98.793 52.197 98.977 52.289 99.135 52.411 99.264 52.562 99.369 52.737 99.432 52.934 99.432 52.965 99.211 52.965 99.166 52.806 99.09 52.661 98.99 52.531 98.869 52.426 98.727 52.342 98.559 52.289 98.383 52.274 98.209 52.289 98.043 52.342 97.896 52.426 97.775 52.531 97.678 52.661 97.602 52.806 97.557 52.965 97.336 52.965"></polyline>
            <polyline id="Fill-573" fill="#FBB231" points="98.004 52.965 98.004 52.7 98.514 52.7 98.598 52.715 98.656 52.728 98.711 52.759 98.748 52.798 98.777 52.843 98.793 52.896 98.801 52.965 98.65 52.965 98.65 52.926 98.641 52.888 98.627 52.858 98.602 52.843 98.58 52.828 98.543 52.82 98.504 52.813 98.193 52.813 98.193 52.965 98.004 52.965"></polyline>
            <polyline id="Fill-574" fill="#FBB231" points="97.314 53.131 97.336 52.965 97.557 52.965 97.557 52.971 97.541 53.131 97.314 53.131"></polyline>
            <polyline id="Fill-575" fill="#FBB231" points="98.004 53.131 98.004 52.965 98.193 52.965 98.193 53.116 98.383 53.116 98.451 53.102 98.504 53.094 98.551 53.078 98.59 53.063 98.619 53.041 98.635 53.017 98.65 52.981 98.65 52.965 98.801 52.965 98.793 53.017 98.777 53.063 98.756 53.102 98.727 53.131 98.004 53.131"></polyline>
            <polyline id="Fill-576" fill="#FBB231" points="99.227 53.131 99.211 52.971 99.211 52.965 99.432 52.965 99.455 53.131 99.227 53.131"></polyline>
            <polyline id="Fill-577" fill="#FBB231" points="97.314 53.131 97.314 53.154 97.336 53.374 97.396 53.579 97.504 53.761 97.633 53.921 97.791 54.051 97.973 54.14 98.17 54.202 98.383 54.224 98.598 54.202 98.793 54.14 98.977 54.051 99.135 53.921 99.264 53.761 99.369 53.579 99.432 53.374 99.455 53.154 99.455 53.131 99.227 53.131 99.227 53.154 99.211 53.337 99.166 53.504 99.09 53.647 98.99 53.775 98.869 53.884 98.727 53.967 98.559 54.02 98.383 54.035 98.209 54.02 98.043 53.967 97.896 53.884 97.775 53.775 97.678 53.647 97.602 53.504 97.557 53.337 97.541 53.154 97.541 53.131 97.314 53.131"></polyline>
            <polyline id="Fill-578" fill="#FBB231" points="98.004 53.131 98.004 53.572 98.193 53.572 98.193 53.192 98.383 53.192 98.611 53.572 98.762 53.572 98.535 53.192 98.59 53.192 98.641 53.177 98.688 53.162 98.727 53.131 98.004 53.131"></polyline>
            <path d="M62.168,39.968 L59.395,39.968 L59.396,39.962 L59.393,39.961 L59.412,39.855 L59.443,39.696 L59.488,39.544 L59.541,39.393 L59.609,39.257 L59.68,39.127 L59.762,39.004 L59.854,38.891 L59.953,38.785 L60.049,38.694 L60.164,38.611 L60.277,38.542 L60.408,38.481 L60.537,38.437 L60.666,38.405 L60.801,38.383 L60.947,38.375 L61.082,38.39 L61.211,38.413 L61.334,38.444 L61.453,38.488 L61.568,38.55 L61.682,38.618 L61.781,38.694 L61.871,38.785 L61.947,38.891 L62.023,39.004 L62.076,39.134 L62.131,39.279 L62.16,39.43 L62.176,39.597 L62.184,39.78 L62.168,39.968 Z M64.225,39.27 L64.164,38.816 L64.059,38.413 L63.906,38.065 L63.717,37.76 L63.488,37.502 L63.238,37.29 L62.965,37.108 L62.67,36.971 L62.365,36.856 L62.053,36.78 L61.744,36.728 L61.432,36.697 L61.137,36.689 L60.521,36.721 L59.975,36.811 L59.48,36.948 L59.041,37.138 L58.66,37.366 L58.326,37.624 L58.031,37.912 L57.787,38.216 L57.576,38.535 L57.4,38.868 L57.266,39.196 L57.15,39.52 L57.066,39.841 L57.006,40.135 L56.961,40.417 L56.93,40.66 L56.893,41.282 L56.914,41.843 L56.998,42.352 L57.127,42.8 L57.311,43.202 L57.529,43.552 L57.787,43.863 L58.084,44.121 L58.402,44.342 L58.744,44.53 L59.102,44.676 L59.473,44.789 L59.854,44.881 L60.232,44.934 L60.611,44.972 L60.984,44.979 L61.234,44.979 L61.469,44.972 L61.674,44.972 L61.871,44.964 L62.047,44.949 L62.205,44.934 L62.357,44.919 L62.494,44.896 L62.623,44.872 L62.744,44.843 L62.867,44.804 L62.98,44.767 L63.094,44.72 L63.215,44.676 L63.338,44.614 L63.459,44.554 L63.764,42.687 L63.541,42.816 L63.33,42.936 L63.109,43.029 L62.896,43.112 L62.691,43.18 L62.48,43.225 L62.273,43.263 L62.068,43.294 L61.865,43.309 L61.666,43.317 L61.461,43.317 L61.266,43.309 L61.066,43.294 L60.869,43.271 L60.682,43.248 L60.482,43.218 L60.33,43.187 L60.18,43.134 L60.025,43.067 L59.891,42.982 L59.754,42.892 L59.633,42.779 L59.52,42.664 L59.412,42.534 L59.32,42.406 L59.238,42.263 L59.178,42.125 L59.123,41.98 L59.092,41.836 L59.08,41.691 L59.086,41.563 L59.104,41.465 L64.027,41.465 L64.066,41.002 L64.18,40.363 L64.232,39.786 L64.225,39.27 Z" id="Fill-579" fill="#FFFFFF"></path>
        </g>
    </g>
</svg>