<?xml version="1.0" encoding="UTF-8"?>
<svg width="126px" height="80px" viewBox="0 0 126 80" version="1.1" xmlns="http://www.w3.org/2000/svg" xmlns:xlink="http://www.w3.org/1999/xlink">
    <!-- Generator: Sketch 48.2 (47327) - http://www.bohemiancoding.com/sketch -->
    <title>Group 14</title>
    <desc>Created with Sketch.</desc>
    <defs></defs>
    <g id="Page-1" stroke="none" stroke-width="1" fill="none" fill-rule="evenodd">
        <g id="Group-14">
            <path d="M125.68,74.938 C125.68,77.247 123.807,79.12 121.498,79.12 L4.43,79.12 C2.121,79.12 0.25,77.247 0.25,74.938 L0.25,4.907 C0.25,2.596 2.121,0.725 4.43,0.725 L121.498,0.725 C123.807,0.725 125.68,2.596 125.68,4.907 L125.68,74.938" id="Fill-378" fill="#008060"></path>
            <path d="M84.709,39.112 C84.709,37.829 85.047,36.8 85.602,36.001 C86.707,34.407 88.682,33.723 90.58,33.727 C92.447,33.731 94.373,34.401 95.52,35.862 C96.166,36.686 96.564,37.762 96.564,39.112 L84.709,39.112 Z M38.816,38.743 C36.344,38.61 34.066,38.563 32.832,37.575 C32.121,37.005 32.262,35.368 33.26,34.774 C34.693,33.921 36.43,33.948 37.428,34.001 C39.455,34.104 41.787,34.766 43.623,35.989 L45.771,34.001 C45.771,34.001 48.039,36.079 48.039,35.989 C50.686,34.147 51.619,34.143 54.082,34.145 C57.453,34.147 58.42,34.803 58.916,35.542 C59.227,36.009 58.922,38.86 58.922,38.86 C58.922,38.86 55.945,38.952 53.799,38.844 C52.096,38.759 51.141,38.753 49.428,39.034 C47.893,39.282 46.84,39.731 45.771,40.616 C45.771,40.616 44.857,39.977 43.861,39.522 C42.051,38.694 40.756,38.846 38.816,38.743 Z M57.141,47.51 C56.029,47.858 54.254,48.036 52.365,47.807 C50.793,47.62 49.295,47.507 48.682,46.094 C48.35,45.331 48.42,44.628 48.936,43.975 C49.746,42.948 51.625,42.747 52.75,42.735 L58.922,42.735 C59.084,44.342 59.598,46.743 57.141,47.51 Z M66.596,40.659 C66.637,39.483 66.75,38.223 66.875,36.989 C66.936,36.385 67.664,35.657 68.689,35.1 C69.619,34.592 70.793,34.227 71.932,34.221 C72.799,34.217 73.691,34.38 74.477,34.682 C75.85,35.21 76.912,36.161 77.023,37.376 C77.125,38.507 77.242,39.577 77.295,40.602 C77.359,41.882 77.33,43.094 77.051,44.268 C76.873,45.016 76.502,45.651 75.732,46.259 C74.867,46.946 73.523,47.553 71.932,47.466 C69.705,47.341 67.715,46.458 67.127,45.225 C66.631,44.186 66.527,42.526 66.596,40.659 Z M100.516,39.173 C100.516,35.977 98.033,30.018 90.018,29.993 C86.537,29.983 83.916,31.518 82.711,32.528 L82.711,30.262 L77.348,30.259 L77.348,32.528 C76.031,31.393 74.436,30.37 72.828,30.128 C71.121,29.87 69.412,29.946 67.299,30.583 C65.543,31.112 64.422,31.895 63.338,33.116 C61.1,30.612 57.561,30.114 54.742,30.01 C51.531,29.893 48.293,30.288 45.771,32.13 C43.34,30.887 40.268,29.913 36.857,29.93 C33.859,29.948 30.988,30.624 28.951,32.382 C28.219,33.014 27.887,33.516 27.523,34.415 C26.805,36.196 27.104,38.251 27.908,39.323 C29.404,41.325 31.082,42.102 34.096,42.44 C36.742,42.737 38.594,42.739 40.553,43.098 C41.479,43.27 42.326,43.954 42.326,44.967 C42.326,46.151 40.672,48.089 36.674,47.829 C33.342,47.614 32.086,47.143 28.951,45.108 L25.416,47.966 C25.416,47.966 26.018,48.446 26.43,48.717 C26.824,48.977 27.236,49.223 27.662,49.45 L27.672,49.45 C31.238,51.374 35.754,52.178 39.84,51.524 C41.846,51.204 43.746,50.532 45.383,49.467 C46.707,50.372 48.455,51.923 52.686,51.731 C55.348,51.612 57.324,51.71 59.174,49.585 L59.174,51.708 L64.354,51.708 L64.354,49.585 C64.354,49.585 65.168,50.245 65.742,50.589 C69.033,52.561 74.266,51.815 77.357,49.462 L77.367,52.208 C77.277,53.901 75.721,55.061 74.084,55.716 C71.258,56.842 68.682,55.833 66.381,54.212 L62.457,56.835 C63.516,57.895 64.486,58.514 65.996,59.206 C70.24,61.147 75.207,60.485 78.635,58.454 C80.893,57.114 81.77,55.471 82.313,52.946 C82.604,51.602 82.633,50.622 82.676,49.446 C82.678,49.411 82.678,49.38 82.678,49.35 C82.725,49.384 82.771,49.413 82.814,49.446 C83.908,50.208 84.873,50.772 86.354,51.221 C88.74,51.948 91.455,51.981 94.486,51.188 C95.896,50.819 97.143,50.231 98.254,49.446 L98.256,49.446 C98.859,49.018 99.42,48.532 99.949,47.997 L96.564,45.587 C95.418,46.522 93.711,47.466 91.766,47.712 C89.518,47.997 86.969,47.589 85.59,46.094 C84.846,45.288 84.584,45.034 84.584,42.987 L100.516,43.003 L100.516,39.173 Z" id="Fill-379" fill="#FFFFFF"></path>
        </g>
    </g>
</svg>