<?xml version="1.0" encoding="UTF-8"?>
<svg width="126px" height="79px" viewBox="0 0 126 79" version="1.1" xmlns="http://www.w3.org/2000/svg" xmlns:xlink="http://www.w3.org/1999/xlink">
    <!-- Generator: Sketch 48.2 (47327) - http://www.bohemiancoding.com/sketch -->
    <title>Group 17</title>
    <desc>Created with Sketch.</desc>
    <defs></defs>
    <g id="Page-1" stroke="none" stroke-width="1" fill="none" fill-rule="evenodd">
        <g id="Group-17">
            <path d="M125.92,74.669 C125.92,76.977 124.05,78.848 121.74,78.848 L4.67,78.848 C2.36,78.848 0.49,76.977 0.49,74.669 L0.49,4.635 C0.49,2.327 2.36,0.456 4.67,0.456 L121.74,0.456 C124.05,0.456 125.92,2.327 125.92,4.635 L125.92,74.669" id="Fill-495" fill="#8BB43F"></path>
            <path d="M26.53,43.358 C27.18,43.692 28.34,44.157 29.44,44.13 C30.45,44.13 30.99,43.589 30.99,42.921 C30.99,42.274 30.6,41.837 29.52,41.217 C28.18,40.444 27.18,39.362 27.18,37.946 C27.18,35.444 29.31,33.667 32.43,33.667 C33.8,33.667 34.86,33.925 35.42,34.26 L34.6,36.786 C34.11,36.553 33.31,36.296 32.38,36.296 C31.38,36.296 30.73,36.759 30.73,37.481 C30.73,38.048 31.2,38.46 32.1,38.95 C33.49,39.749 34.65,40.831 34.65,42.35 C34.65,45.188 32.36,46.786 29.16,46.759 C27.69,46.733 26.33,46.346 25.66,45.884 L26.53,43.358" id="Fill-496" fill="#FFFFFF"></path>
            <path d="M35.37,46.526 L38.82,28.358 L42.38,28.358 L41.02,35.497 L41.07,35.522 C42.02,34.389 43.26,33.639 44.83,33.639 C46.69,33.639 47.74,34.852 47.74,36.862 C47.74,37.481 47.64,38.409 47.48,39.182 L46.09,46.526 L42.54,46.526 L43.88,39.413 C43.98,38.925 44.03,38.331 44.03,37.842 C44.03,37.069 43.72,36.528 42.92,36.528 C41.79,36.528 40.58,37.969 40.12,40.315 L38.93,46.526 L35.37,46.526" id="Fill-497" fill="#FFFFFF"></path>
            <path d="M52.3,41.733 C52.3,43.022 52.82,44.053 54.03,44.053 C55.91,44.053 56.97,40.704 56.97,38.51 C56.97,37.456 56.56,36.374 55.29,36.374 C53.36,36.374 52.3,39.696 52.3,41.733 Z M60.6,38.614 C60.6,43.022 57.77,46.786 53.57,46.786 C50.37,46.786 48.67,44.567 48.67,41.811 C48.67,37.507 51.51,33.639 55.78,33.639 C59.11,33.639 60.6,36.063 60.6,38.614 Z" id="Fill-498" fill="#FFFFFF"></path>
            <path d="M64.83,43.589 C65.21,43.897 65.65,44.104 66.3,44.104 C68.28,44.104 69.65,40.831 69.65,38.538 C69.65,37.585 69.31,36.579 68.23,36.579 C66.99,36.579 65.83,38.048 65.42,40.266 L64.83,43.589 Z M59.75,51.579 L62.23,38.563 C62.51,37.094 62.79,35.135 62.95,33.846 L66.09,33.846 L65.89,35.755 L65.94,35.755 C66.89,34.415 68.28,33.639 69.7,33.639 C72.3,33.639 73.36,35.78 73.36,38.176 C73.36,42.507 70.63,46.786 66.45,46.786 C65.58,46.786 64.78,46.579 64.37,46.321 L64.29,46.321 L63.31,51.579 L59.75,51.579 Z" id="Fill-499" fill="#FFFFFF"></path>
            <path d="M78.08,32.378 C77.07,32.378 76.4,31.657 76.4,30.6 C76.4,29.44 77.3,28.54 78.44,28.54 C79.52,28.54 80.22,29.286 80.22,30.317 C80.19,31.63 79.24,32.378 78.13,32.378 L78.08,32.378 Z M73.46,46.526 L75.86,33.925 L79.44,33.925 L77.02,46.526 L73.46,46.526 Z" id="Fill-500" fill="#FFFFFF"></path>
            <path d="M80.11,46.526 L81.99,36.579 L80.35,36.579 L80.86,33.899 L82.51,33.899 L82.61,33.305 C82.89,31.811 83.46,30.317 84.67,29.286 C85.63,28.46 86.89,28.1 88.15,28.1 C89.03,28.1 89.67,28.229 90.09,28.409 L89.39,31.192 C89.08,31.089 88.72,31.01 88.26,31.01 C87.07,31.01 86.35,32.094 86.14,33.305 L86.01,33.899 L88.49,33.899 L88,36.579 L85.55,36.579 L83.67,46.526 L80.11,46.526" id="Fill-501" fill="#FFFFFF"></path>
            <path d="M92.9,33.925 L93.46,39.594 C93.62,40.858 93.72,41.759 93.77,42.585 L93.82,42.585 C94.11,41.733 94.37,40.934 94.88,39.569 L97.04,33.925 L100.76,33.925 L96.4,43.255 C94.85,46.45 93.36,48.794 91.73,50.315 C90.47,51.501 88.98,52.092 88.26,52.249 L87.28,49.233 C87.87,49.026 88.62,48.717 89.29,48.227 C90.11,47.661 90.81,46.887 91.22,46.089 C91.32,45.909 91.35,45.755 91.3,45.497 L89.16,33.925 L92.9,33.925" id="Fill-502" fill="#FFFFFF"></path>
        </g>
    </g>
</svg>