<?xml version="1.0" encoding="UTF-8"?>
<svg width="126px" height="80px" viewBox="0 0 126 80" version="1.1" xmlns="http://www.w3.org/2000/svg" xmlns:xlink="http://www.w3.org/1999/xlink">
    <!-- Generator: Sketch 48.2 (47327) - http://www.bohemiancoding.com/sketch -->
    <title>Group 8</title>
    <desc>Created with Sketch.</desc>
    <defs></defs>
    <g id="Page-1" stroke="none" stroke-width="1" fill="none" fill-rule="evenodd">
        <g id="Group-8">
            <path d="M125.92,75.208 C125.92,77.518 124.05,79.39 121.74,79.39 L4.67,79.39 C2.36,79.39 0.49,77.518 0.49,75.208 L0.49,5.176 C0.49,2.866 2.36,0.996 4.67,0.996 L121.74,0.996 C124.05,0.996 125.92,2.866 125.92,5.176 L125.92,75.208" id="Fill-465" fill="#045EA0"></path>
            <path d="M42.73,45.145 C52.22,41.077 65.54,37.391 83.18,41.082 L83.36,36.609 C64.75,34.578 51.4,40.503 42.73,44.704 L42.73,45.145" id="Fill-466" fill="#FAA929"></path>
            <polyline id="Fill-467" fill="#FFFFFF" points="25.6 48.433 34.54 48.433 34.54 51.129 28.98 51.129 28.95 53.617 34.49 53.617 34.49 56.199 28.93 56.199 28.95 58.687 34.43 58.687 34.43 61.383 25.6 61.383 25.6 48.433"></polyline>
            <polyline id="Fill-468" fill="#FFFFFF" points="36.79 47.348 40.04 47.348 40.06 61.383 36.8 61.383 36.79 47.348"></polyline>
            <path d="M48.85,55.488 C48.85,54.515 48.38,53.636 47.3,53.636 C46.27,53.636 45.48,54.552 45.28,55.488 L48.85,55.488 Z M51.24,60.315 C50.14,61.252 48.46,61.718 46.96,61.718 C43.54,61.718 41.98,59.287 41.98,56.873 C41.98,54.028 44.12,51.614 47.05,51.614 C50.64,51.614 51.77,54.16 51.77,57.396 L45.24,57.396 C45.24,58.126 45.71,59.361 47.5,59.361 C48.64,59.361 49.28,59.025 50.16,58.426 L51.24,60.315 Z" id="Fill-469" fill="#FFFFFF"></path>
            <path d="M61.65,60.746 C60.75,61.307 59.27,61.718 58.19,61.718 C55.19,61.718 53.04,59.998 53.04,56.892 C53.04,53.71 55.17,51.614 58.39,51.614 C59.52,51.614 60.86,51.97 61.59,52.438 L60.54,54.571 C60.06,54.364 59.53,54.196 59.01,54.196 C57.38,54.196 56.3,55.17 56.3,56.723 C56.3,58.071 57.35,59.136 58.73,59.136 C59.35,59.136 59.96,58.857 60.49,58.593 L61.65,60.746" id="Fill-470" fill="#FFFFFF"></path>
            <path d="M62.85,51.953 L64.32,51.953 L64.31,48.752 L67.46,48.752 L67.38,51.953 L70.05,51.953 L70,54.309 L67.32,54.309 C67.32,55.619 67.23,57.003 67.23,57.807 C67.23,58.632 67.44,59.025 68.17,59.025 C68.62,59.025 68.99,58.801 69.36,58.575 L70.07,60.784 C69.12,61.363 67.96,61.718 66.86,61.718 C64.22,61.718 64.09,60.054 64.09,57.884 C64.09,56.723 64.18,55.563 64.18,54.309 L62.78,54.309 L62.85,51.953" id="Fill-471" fill="#FFFFFF"></path>
            <path d="M71.72,51.953 L74.98,51.953 L74.98,53.28 L75.02,53.28 C75.5,52.476 76.14,51.689 77.41,51.689 C77.77,51.689 78.14,51.727 78.47,51.802 L78.04,55.02 C77.73,54.926 77.37,54.833 76.89,54.833 C75.8,54.833 74.96,55.749 74.96,55.937 L74.9,61.383 L71.65,61.383 L71.72,51.953" id="Fill-472" fill="#FFFFFF"></path>
            <path d="M84.38,59.249 C85.93,59.249 86.39,57.902 86.39,56.666 C86.39,55.432 85.93,54.083 84.38,54.083 C82.82,54.083 82.35,55.432 82.35,56.666 C82.35,57.902 82.82,59.249 84.38,59.249 Z M84.38,51.614 C87.85,51.614 89.65,53.822 89.65,56.666 C89.65,59.51 87.85,61.718 84.38,61.718 C80.89,61.718 79.1,59.51 79.1,56.666 C79.1,53.822 80.89,51.614 84.38,51.614 Z" id="Fill-473" fill="#FFFFFF"></path>
            <path d="M91.42,51.953 L94.68,51.953 L94.68,52.981 C95.42,52.251 96.57,51.614 97.73,51.614 C99.73,51.614 100.81,52.718 100.81,55.301 C100.81,57.229 100.79,59.304 100.78,61.383 L97.52,61.383 C97.54,59.567 97.56,57.733 97.56,55.788 C97.56,55.02 97.35,54.421 96.38,54.421 C95.85,54.421 95.11,54.871 94.68,55.28 L94.66,61.383 L91.34,61.383 L91.42,51.953" id="Fill-474" fill="#FFFFFF"></path>
            <polyline id="Fill-475" fill="#FFFFFF" points="52.38 32.526 56.49 18.964 60.16 18.964 56.05 32.526 52.38 32.526"></polyline>
            <path d="M50.74,18.967 L47.44,24.716 C46.6,26.222 46.11,26.984 45.87,27.935 L45.82,27.935 C45.88,26.729 45.71,25.247 45.69,24.411 L45.33,18.967 L39.15,18.967 L39.09,19.333 C40.67,19.333 41.62,20.129 41.88,21.76 L43.08,32.526 L46.88,32.526 L54.57,18.967 L50.74,18.967" id="Fill-476" fill="#FFFFFF"></path>
            <path d="M78.86,24.527 C78.82,23.523 78.79,22.164 78.85,21.34 L78.8,21.34 C78.58,22.014 77.62,24.036 77.2,25.03 L75.83,28.002 L79.05,28.002 L78.86,24.527 Z M79.28,32.526 L79.18,30.51 L74.6,30.507 L73.66,32.526 L69.68,32.526 L76.9,18.989 L81.79,18.989 L83.01,32.526 L79.28,32.526 Z" id="Fill-477" fill="#FFFFFF"></path>
            <path d="M64.02,32.912 C61.43,32.912 59.71,32.09 58.48,31.357 L60.23,28.687 C61.33,29.305 62.19,30.014 64.18,30.014 C64.83,30.014 65.44,29.849 65.79,29.242 C66.3,28.36 65.68,27.886 64.24,27.073 L63.53,26.613 C61.41,25.161 60.49,23.782 61.49,21.374 C62.13,19.834 63.82,18.666 66.6,18.666 C68.52,18.666 70.33,19.497 71.38,20.309 L69.37,22.667 C68.34,21.838 67.49,21.419 66.52,21.419 C65.75,21.419 65.16,21.718 64.96,22.12 C64.57,22.878 65.08,23.394 66.2,24.088 L67.04,24.624 C69.62,26.252 70.23,27.957 69.59,29.553 C68.47,32.299 66.29,32.912 64.02,32.912" id="Fill-478" fill="#FFFFFF"></path>
        </g>
    </g>
</svg>