<?xml version="1.0" encoding="UTF-8"?>
<svg width="126px" height="79px" viewBox="0 0 126 79" version="1.1" xmlns="http://www.w3.org/2000/svg" xmlns:xlink="http://www.w3.org/1999/xlink">
    <!-- Generator: Sketch 48.2 (47327) - http://www.bohemiancoding.com/sketch -->
    <title>Group</title>
    <desc>Created with Sketch.</desc>
    <defs></defs>
    <g id="Page-1" stroke="none" stroke-width="1" fill="none" fill-rule="evenodd">
        <g id="Group">
            <path d="M125.68,74.343 C125.68,76.652 123.807,78.523 121.498,78.523 L4.43,78.523 C2.121,78.523 0.25,76.652 0.25,74.343 L0.25,4.312 C0.25,2.002 2.121,0.13 4.43,0.13 L121.498,0.13 C123.807,0.13 125.68,2.002 125.68,4.312 L125.68,74.343" id="Fill-342" fill="#3957A7"></path>
            <polyline id="Fill-343" fill="#FFFFFF" points="57.971 51.102 51.844 51.102 55.674 27.568 61.801 27.568 57.971 51.102"></polyline>
            <path d="M46.689,27.568 L40.848,43.755 L40.156,40.269 L40.156,40.27 L38.096,29.687 C38.096,29.687 37.846,27.568 35.189,27.568 L25.531,27.568 L25.42,27.967 C25.42,27.967 28.373,28.58 31.828,30.656 L37.15,51.102 L43.535,51.102 L53.285,27.568 L46.689,27.568" id="Fill-344" fill="#FFFFFF"></path>
            <path d="M88.143,42.778 L91.361,33.969 L93.174,42.778 L88.143,42.778 Z M94.885,51.102 L100.51,51.102 L95.605,27.568 L90.68,27.568 C88.404,27.568 87.85,29.321 87.85,29.321 L78.713,51.102 L85.1,51.102 L86.375,47.607 L94.166,47.607 L94.885,51.102 Z" id="Fill-345" fill="#FFFFFF"></path>
            <path d="M80.064,28.173 C80.064,28.173 77.367,27.147 74.555,27.147 C71.514,27.147 64.293,28.476 64.293,34.938 C64.293,41.019 72.77,41.094 72.77,44.286 C72.77,47.479 65.166,46.909 62.658,44.895 L61.746,50.177 C61.746,50.177 64.482,51.508 68.662,51.508 C72.844,51.508 79.152,49.342 79.152,43.451 C79.152,37.332 70.602,36.761 70.602,34.101 C70.602,31.44 76.57,31.782 79.191,33.227 L80.064,28.173 Z" id="Fill-346" fill="#FFFFFF"></path>
            <path d="M40.156,40.27 L38.096,29.687 C38.096,29.687 37.846,27.568 35.189,27.568 L25.531,27.568 L25.42,27.967 C25.42,27.967 30.061,28.928 34.512,32.531 C38.768,35.977 40.156,40.27 40.156,40.27" id="Fill-347" fill="#F9A533"></path>
        </g>
    </g>
</svg>