<?xml version="1.0" encoding="UTF-8"?>
<svg width="126px" height="80px" viewBox="0 0 126 80" version="1.1" xmlns="http://www.w3.org/2000/svg" xmlns:xlink="http://www.w3.org/1999/xlink">
    <!-- Generator: Sketch 48.2 (47327) - http://www.bohemiancoding.com/sketch -->
    <title>Group 7</title>
    <desc>Created with Sketch.</desc>
    <defs></defs>
    <g id="Page-1" stroke="none" stroke-width="1" fill="none" fill-rule="evenodd">
        <g id="Group-7">
            <path d="M125.984,75.208 C125.984,77.518 124.111,79.39 121.803,79.39 L4.734,79.39 C2.426,79.39 0.555,77.518 0.555,75.208 L0.555,5.176 C0.555,2.866 2.426,0.996 4.734,0.996 L121.803,0.996 C124.111,0.996 125.984,2.866 125.984,5.176 L125.984,75.208" id="Fill-580" fill="#121212"></path>
            <polygon id="Fill-581" fill="#FFDE37" points="95.814 48.213 96.443 48.213 96.443 32.364 95.814 32.364"></polygon>
            <polygon id="Fill-582" fill="#FFDE37" points="88.23 48.166 88.857 48.166 88.857 32.315 88.23 32.315"></polygon>
            <polyline id="Fill-583" fill="#FFDE37" points="30.348 39.403 30.979 34.832 31.619 39.403 34.699 39.403 36.193 32.345 33.783 32.345 33.123 36.808 32.463 32.345 29.525 32.345 28.865 36.691 28.213 32.345 25.703 32.345 27.219 39.403 30.348 39.403"></polyline>
            <polyline id="Fill-584" fill="#FFDE37" points="37.4 39.403 43.529 39.403 43.529 37.567 40.443 37.567 40.443 36.732 43.355 36.732 43.355 34.916 40.443 34.916 40.443 34.16 43.43 34.16 43.43 32.345 37.4 32.345 37.4 39.403"></polyline>
            <path d="M44.85,37.136 C44.838,37.223 44.838,37.312 44.838,37.391 C44.838,38.736 46.061,39.522 48.359,39.522 C50.625,39.522 51.859,38.713 51.859,37.22 C51.859,35.934 51.135,35.553 49.332,34.946 C48.367,34.62 47.809,34.637 47.809,34.147 C47.809,33.881 47.979,33.69 48.381,33.69 C48.855,33.69 49.088,34.004 49.066,34.467 L51.672,34.467 L51.672,34.17 C51.672,32.924 50.543,32.172 48.463,32.172 C46.174,32.172 44.959,33.061 44.959,34.445 C44.959,35.436 45.574,36.011 46.838,36.374 C47.766,36.639 48.297,36.857 48.699,37.034 C48.912,37.129 48.982,37.34 48.953,37.539 C48.912,37.813 48.746,37.982 48.33,37.982 C47.816,37.982 47.672,37.675 47.672,37.194 L47.672,37.136 L44.85,37.136" id="Fill-585" fill="#FFDE37"></path>
            <polyline id="Fill-586" fill="#FFDE37" points="59.338 32.345 52.623 32.345 52.623 34.228 54.494 34.228 54.494 39.403 57.479 39.403 57.479 34.228 59.338 34.228 59.338 32.345"></polyline>
            <polyline id="Fill-587" fill="#FFDE37" points="60.621 39.403 66.752 39.403 66.752 37.567 63.664 37.567 63.664 36.732 66.549 36.732 66.549 34.916 63.664 34.916 63.664 34.16 66.65 34.16 66.65 32.345 60.621 32.345 60.621 39.403"></polyline>
            <path d="M71.557,35.155 L71.557,33.925 C71.688,33.916 71.795,33.916 71.895,33.916 C72.555,33.916 72.848,34.076 72.848,34.514 C72.848,34.963 72.48,35.165 71.773,35.165 C71.709,35.165 71.633,35.165 71.557,35.155 Z M68.619,39.403 L71.557,39.403 L71.557,36.888 C71.656,36.878 71.752,36.878 71.828,36.878 C72.533,36.878 72.639,37.135 72.75,37.901 L72.824,38.42 C72.869,38.736 72.955,39.06 73.055,39.403 L76.037,39.403 C75.904,38.883 75.809,38.46 75.764,38.146 L75.666,37.391 C75.535,36.367 75.146,35.984 74.355,35.828 C75.16,35.63 75.764,35.023 75.764,34.175 C75.764,32.762 74.875,32.345 72.729,32.345 L68.619,32.345 L68.619,39.403 Z" id="Fill-588" fill="#FFDE37"></path>
            <polyline id="Fill-589" fill="#FFDE37" points="79.82 35.375 81.395 39.403 84.811 39.403 84.811 32.345 82.504 32.345 82.504 35.938 81.199 32.345 77.512 32.345 77.512 39.403 79.82 39.403 79.82 35.375"></polyline>
            <polyline id="Fill-590" fill="#FFDE37" points="56.455 43.799 58.031 47.827 61.447 47.827 61.447 40.768 59.139 40.768 59.139 44.362 57.836 40.768 54.148 40.768 54.148 47.827 56.455 47.827 56.455 43.799"></polyline>
            <polyline id="Fill-591" fill="#FFDE37" points="79.891 43.799 81.465 47.827 84.881 47.827 84.881 40.768 82.574 40.768 82.574 44.362 81.27 40.768 77.582 40.768 77.582 47.827 79.891 47.827 79.891 43.799"></polyline>
            <path d="M45.012,40.768 L45.012,45.021 C45.012,45.835 45.066,46.472 45.693,47.081 C46.344,47.708 47.285,47.946 48.627,47.946 C51.094,47.946 52.252,47.022 52.252,45.021 L52.252,40.768 L49.318,40.768 L49.318,45.129 C49.318,45.707 49.059,46.02 48.627,46.02 C48.172,46.02 47.934,45.726 47.934,45.129 L47.934,40.768 L45.012,40.768" id="Fill-592" fill="#FFDE37"></path>
            <polygon id="Fill-593" fill="#FFDE37" points="63.367 47.827 66.373 47.827 66.373 40.768 63.367 40.768"></polygon>
            <path d="M71.967,42.186 C72.66,42.186 72.824,42.798 72.824,44.135 C72.824,45.627 72.652,46.307 71.957,46.307 C71.273,46.307 71.098,45.638 71.098,44.281 C71.098,42.855 71.25,42.186 71.967,42.186 Z M71.881,47.936 C74.555,47.936 75.986,46.643 75.986,44.246 C75.986,41.89 74.545,40.548 71.979,40.548 C69.393,40.548 67.938,41.89 67.938,44.255 C67.938,46.603 69.381,47.936 71.881,47.936 Z" id="Fill-594" fill="#FFDE37"></path>
            <path d="M99.666,32.879 C99.898,32.879 100.004,32.943 100.004,33.102 C100.004,33.255 99.898,33.31 99.674,33.31 L99.465,33.31 L99.465,32.879 L99.666,32.879 Z M99.713,32.719 L99.221,32.719 L99.221,34.024 L99.465,34.024 L99.465,33.467 L99.709,33.467 L99.975,34.024 L100.248,34.024 L99.959,33.428 C100.146,33.391 100.254,33.262 100.254,33.076 C100.254,32.84 100.076,32.719 99.713,32.719 Z M100.682,33.403 C100.682,33.668 100.578,33.916 100.391,34.097 C100.193,34.29 99.945,34.391 99.674,34.391 C99.418,34.391 99.166,34.286 98.977,34.094 C98.787,33.901 98.682,33.656 98.682,33.394 C98.682,33.131 98.791,32.875 98.986,32.677 C99.168,32.492 99.414,32.392 99.682,32.392 C99.959,32.392 100.205,32.494 100.396,32.69 C100.582,32.875 100.682,33.124 100.682,33.403 Z M99.68,32.241 C99.369,32.241 99.092,32.354 98.881,32.569 C98.656,32.796 98.531,33.089 98.531,33.394 C98.531,33.697 98.65,33.978 98.869,34.199 C99.088,34.423 99.373,34.545 99.68,34.545 C99.98,34.545 100.271,34.423 100.5,34.203 C100.715,33.992 100.834,33.709 100.834,33.394 C100.834,33.087 100.713,32.799 100.502,32.586 C100.281,32.36 99.994,32.241 99.68,32.241 Z" id="Fill-595" fill="#FFDE37"></path>
        </g>
    </g>
</svg>