<?xml version="1.0" encoding="UTF-8"?>
<svg width="126px" height="80px" viewBox="0 0 126 80" version="1.1" xmlns="http://www.w3.org/2000/svg" xmlns:xlink="http://www.w3.org/1999/xlink">
    <!-- Generator: Sketch 48.2 (47327) - http://www.bohemiancoding.com/sketch -->
    <title>Group 10</title>
    <desc>Created with Sketch.</desc>
    <defs></defs>
    <g id="Page-1" stroke="none" stroke-width="1" fill="none" fill-rule="evenodd">
        <g id="Group-10">
            <path d="M125.68,75.072 C125.68,77.382 123.807,79.254 121.498,79.254 L4.43,79.254 C2.121,79.254 0.25,77.382 0.25,75.072 L0.25,5.041 C0.25,2.732 2.121,0.861 4.43,0.861 L121.498,0.861 C123.807,0.861 125.68,2.732 125.68,5.041 L125.68,75.072" id="Fill-357" fill="#203C73"></path>
            <path d="M39.859,45.991 L37.16,45.991 L34.842,37.586 C34.6,36.759 34.459,35.893 34.316,35.027 L34.299,35.027 C34.195,35.873 34.035,36.7 33.814,37.546 L31.516,45.991 L28.938,45.991 L25.41,32.387 L27.748,32.387 L29.844,40.65 C30.084,41.558 30.246,42.423 30.367,43.33 L30.389,43.33 C30.529,42.444 30.689,41.576 30.93,40.75 L33.25,32.387 L35.648,32.387 L38.025,40.771 C38.229,41.497 38.43,42.403 38.57,43.27 L38.592,43.27 C38.73,42.423 38.873,41.637 39.074,40.892 L41.191,32.387 L43.387,32.387 L39.859,45.991" id="Fill-358" fill="#FFFFFF"></path>
            <path d="M47.574,37.587 C46.262,37.587 44.994,38.593 44.994,40.892 C44.994,43.149 45.881,44.338 47.553,44.338 C48.943,44.338 50.111,43.25 50.111,40.933 C50.111,38.796 49.287,37.587 47.574,37.587 Z M47.352,46.192 C44.57,46.192 42.756,44.64 42.756,41.113 C42.756,38.091 44.713,35.772 47.754,35.772 C50.436,35.772 52.33,37.264 52.33,40.79 C52.33,43.875 50.314,46.192 47.352,46.192 Z" id="Fill-359" fill="#FFFFFF"></path>
            <path d="M58.658,37.909 C56.664,37.526 55.697,38.917 55.697,41.92 L55.697,45.991 L53.539,45.991 L53.539,35.975 L55.596,35.975 C55.596,36.538 55.535,37.425 55.395,38.191 L55.434,38.191 C55.877,36.841 56.885,35.591 58.76,35.793 L58.658,37.909" id="Fill-360" fill="#FFFFFF"></path>
            <polygon id="Fill-361" fill="#FFFFFF" points="59.912 45.991 62.07 45.991 62.07 32.259 59.912 32.259"></polygon>
            <path d="M70.15,37.708 C69.605,37.587 69.082,37.526 68.559,37.526 C66.846,37.526 65.678,38.574 65.678,41.275 C65.678,43.29 66.301,44.419 67.672,44.419 C69.264,44.419 70.15,42.525 70.15,40.811 L70.15,37.708 Z M70.25,45.991 C70.25,45.466 70.291,44.68 70.393,44.117 L70.352,44.117 C69.809,45.345 68.641,46.192 67.086,46.192 C64.629,46.192 63.398,44.379 63.398,41.476 C63.398,38.03 65.395,35.813 68.641,35.813 C69.121,35.813 69.605,35.853 70.15,35.893 L70.15,32.259 L72.287,32.259 L72.287,45.991 L70.25,45.991 Z" id="Fill-362" fill="#FFFFFF"></path>
            <path d="M77.186,34.1 C76.762,34.1 76.42,34.1 76.055,34.141 L76.055,39.118 C76.357,39.158 76.701,39.198 77.023,39.198 C78.857,39.178 80.066,38.171 80.066,36.578 C80.066,35.027 79.16,34.1 77.186,34.1 Z M77.064,41.012 C76.762,41.012 76.4,41.012 76.055,40.973 L76.055,45.991 L73.859,45.991 L73.859,32.387 C74.908,32.347 76.076,32.306 77.348,32.306 C80.57,32.306 82.344,33.877 82.344,36.398 C82.344,39.038 80.229,41.012 77.064,41.012 Z" id="Fill-363" fill="#FFFFFF"></path>
            <path d="M88.416,41.375 C85.412,41.375 84.586,42.201 84.586,43.148 C84.586,43.915 85.109,44.499 85.957,44.499 C87.428,44.499 88.416,43.089 88.416,41.658 L88.416,41.375 Z M88.557,45.991 C88.557,45.345 88.578,44.68 88.656,44.136 L88.637,44.117 C88.154,45.306 86.904,46.192 85.313,46.192 C83.598,46.192 82.51,45.044 82.51,43.411 C82.51,41.154 84.746,39.925 88.416,39.925 L88.416,39.341 C88.416,38.111 87.891,37.445 86.32,37.445 C85.393,37.445 84.262,37.748 83.457,38.171 L83.033,36.438 C84.041,36.055 85.393,35.772 86.682,35.772 C89.727,35.772 90.572,37.103 90.572,39.098 L90.572,43.25 C90.572,44.117 90.592,45.144 90.631,45.991 L88.557,45.991 Z" id="Fill-364" fill="#FFFFFF"></path>
            <path d="M96.4,46.697 C95.152,50.04 93.82,51.069 91.545,51.069 C91.162,51.069 90.617,51.009 90.275,50.948 L90.518,49.073 C90.859,49.175 91.342,49.235 91.746,49.235 C92.691,49.235 93.578,48.772 94.246,46.978 L94.607,45.991 L90.859,35.975 L93.279,35.975 L94.908,40.549 C95.232,41.435 95.475,42.322 95.697,43.169 L95.715,43.169 C95.918,42.363 96.342,41.053 96.703,40.046 L98.135,35.975 L100.453,35.975 L96.4,46.697" id="Fill-365" fill="#FFFFFF"></path>
            <polyline id="Fill-366" fill="#FFFFFF" points="97.131 32.441 96.414 32.441 96.414 32.18 98.143 32.18 98.143 32.441 97.42 32.441 97.42 34.362 97.131 34.362 97.131 32.441"></polyline>
            <path d="M98.441,32.18 L98.875,32.18 L99.391,33.726 C99.463,33.942 99.475,33.986 99.49,34.049 L99.496,34.049 C99.533,33.93 99.543,33.906 99.613,33.699 L100.133,32.18 L100.518,32.18 L100.518,34.362 L100.242,34.362 L100.242,32.537 L100.236,32.537 L99.609,34.362 L99.35,34.362 L98.727,32.508 L98.717,32.508 L98.717,34.362 L98.441,34.362 L98.441,32.18" id="Fill-367" fill="#FFFFFF"></path>
        </g>
    </g>
</svg>